<?xml version="1.0" encoding="UTF-8"?>
<svg width="1964" height="838" viewBox="36 118 1964 838" fill="none" xmlns="http://www.w3.org/2000/svg" role="img" aria-labelledby="title desc">
  <title id="title">AI token usage visualization</title>
  <desc id="desc">A profile ranking chart showing local AI token usage by day and model.</desc>
  <style>
    text { font-family: -apple-system, BlinkMacSystemFont, "Segoe UI", sans-serif; }
    .title { fill: #20242a; font-size: 46px; font-weight: 760; }
    .subtitle { fill: #5f6671; font-size: 30px; font-weight: 420; }
    .section { fill: #606773; font-size: 38px; font-weight: 650; }
    .axis { fill: #666; font-size: 24px; font-weight: 420; }
    .tick { fill: #666; font-size: 24px; font-weight: 420; }
    .legend { fill: #5f6671; font-size: 24px; font-weight: 500; }
    .metric { fill: #20242a; font-size: 24px; font-weight: 650; }
    .grid { stroke: #eceff3; stroke-width: 1; }
    .icon { fill: #606773; }
  </style>
  <rect x="36" y="118" width="1964" height="838" fill="#ffffff"/>

  <g transform="translate(150, 145)">
    
      <line x1="0" y1="457.5" x2="1798" y2="457.5" class="grid"/>
      <text x="-26" y="464.5" text-anchor="end" class="axis">143.6M</text>
      <line x1="0" y1="305.0" x2="1798" y2="305.0" class="grid"/>
      <text x="-26" y="312.0" text-anchor="end" class="axis">287.3M</text>
      <line x1="0" y1="152.5" x2="1798" y2="152.5" class="grid"/>
      <text x="-26" y="159.5" text-anchor="end" class="axis">430.9M</text>
      <line x1="0" y1="0.0" x2="1798" y2="0.0" class="grid"/>
      <text x="-26" y="7.0" text-anchor="end" class="axis">574.5M</text>
    <g>
      <rect x="0" y="604" width="8.62" height="6" fill="#dc2626"><title>2025-12-24 · gpt-5.2-codex: 5,790,449</title></rect><rect x="9.62" y="593" width="8.62" height="17" fill="#dc2626"><title>2025-12-25 · gpt-5.2-codex: 16,443,542</title></rect><rect x="19.241" y="563" width="8.62" height="47" fill="#dc2626"><title>2025-12-26 · gpt-5.2-codex: 43,924,994</title></rect><rect x="48.102" y="583" width="8.62" height="27" fill="#dc2626"><title>2025-12-29 · gpt-5.2-codex: 25,759,517</title></rect><rect x="57.722" y="576" width="8.62" height="34" fill="#dc2626"><title>2025-12-30 · gpt-5.2-codex: 32,097,039</title></rect><rect x="67.342" y="595" width="8.62" height="15" fill="#dc2626"><title>2025-12-31 · gpt-5.2-codex: 14,388,476</title></rect><rect x="76.963" y="549" width="8.62" height="61" fill="#dc2626"><title>2026-01-01 · gpt-5.2-codex: 57,050,767</title></rect><rect x="105.824" y="595" width="8.62" height="15" fill="#dc2626"><title>2026-01-04 · gpt-5.2-codex: 14,054,530</title></rect><rect x="105.824" y="593" width="8.62" height="2" fill="#7c3aed"><title>2026-01-04 · claude-opus-4-5: 1,669,225</title></rect><rect x="105.824" y="588" width="8.62" height="5" fill="#d6d6d6"><title>2026-01-04 · other: 4,249,098</title></rect><rect x="115.444" y="598" width="8.62" height="12" fill="#dc2626"><title>2026-01-05 · gpt-5.2-codex: 11,081,355</title></rect><rect x="115.444" y="590" width="8.62" height="8" fill="#7c3aed"><title>2026-01-05 · claude-opus-4-5: 7,863,606</title></rect><rect x="115.444" y="589" width="8.62" height="1" fill="#ca8a04"><title>2026-01-05 · gpt-5.1-codex-mini: 4,857</title></rect><rect x="125.064" y="600" width="8.62" height="10" fill="#dc2626"><title>2026-01-06 · gpt-5.2-codex: 9,555,672</title></rect><rect x="125.064" y="587" width="8.62" height="13" fill="#7c3aed"><title>2026-01-06 · claude-opus-4-5: 11,828,442</title></rect><rect x="134.684" y="604" width="8.62" height="6" fill="#dc2626"><title>2026-01-07 · gpt-5.2-codex: 5,181,180</title></rect><rect x="134.684" y="592" width="8.62" height="12" fill="#7c3aed"><title>2026-01-07 · claude-opus-4-5: 11,137,847</title></rect><rect x="144.305" y="605" width="8.62" height="5" fill="#7c3aed"><title>2026-01-08 · claude-opus-4-5: 4,331,620</title></rect><rect x="153.925" y="573" width="8.62" height="37" fill="#7c3aed"><title>2026-01-09 · claude-opus-4-5: 34,831,758</title></rect><rect x="173.166" y="609" width="8.62" height="1" fill="#7c3aed"><title>2026-01-11 · claude-opus-4-5: 146,164</title></rect><rect x="182.786" y="598" width="8.62" height="12" fill="#7c3aed"><title>2026-01-12 · claude-opus-4-5: 11,671,587</title></rect><rect x="192.406" y="591" width="8.62" height="19" fill="#dc2626"><title>2026-01-13 · gpt-5.2-codex: 17,791,041</title></rect><rect x="192.406" y="566" width="8.62" height="25" fill="#7c3aed"><title>2026-01-13 · claude-opus-4-5: 23,991,551</title></rect><rect x="202.027" y="605" width="8.62" height="5" fill="#dc2626"><title>2026-01-14 · gpt-5.2-codex: 4,350,993</title></rect><rect x="202.027" y="593" width="8.62" height="12" fill="#7c3aed"><title>2026-01-14 · claude-opus-4-5: 11,423,752</title></rect><rect x="211.647" y="606" width="8.62" height="4" fill="#7c3aed"><title>2026-01-15 · claude-opus-4-5: 3,590,929</title></rect><rect x="221.267" y="608" width="8.62" height="2" fill="#dc2626"><title>2026-01-16 · gpt-5.2-codex: 2,023,919</title></rect><rect x="221.267" y="601" width="8.62" height="7" fill="#7c3aed"><title>2026-01-16 · claude-opus-4-5: 6,714,435</title></rect><rect x="240.508" y="609" width="8.62" height="1" fill="#9333ea"><title>2026-01-18 · claude-sonnet-4-5: 376,202</title></rect><rect x="250.128" y="593" width="8.62" height="17" fill="#dc2626"><title>2026-01-19 · gpt-5.2-codex: 16,084,211</title></rect><rect x="250.128" y="498" width="8.62" height="95" fill="#7c3aed"><title>2026-01-19 · claude-opus-4-5: 89,099,463</title></rect><rect x="250.128" y="493" width="8.62" height="5" fill="#9333ea"><title>2026-01-19 · claude-sonnet-4-5: 4,458,695</title></rect><rect x="250.128" y="492" width="8.62" height="1" fill="#d6d6d6"><title>2026-01-19 · other: 39,760</title></rect><rect x="259.749" y="609" width="8.62" height="1" fill="#dc2626"><title>2026-01-20 · gpt-5.2-codex: 1,332,841</title></rect><rect x="259.749" y="573" width="8.62" height="36" fill="#7c3aed"><title>2026-01-20 · claude-opus-4-5: 33,775,164</title></rect><rect x="259.749" y="571" width="8.62" height="2" fill="#db2777"><title>2026-01-20 · gemini-3-pro-high: 1,539,597</title></rect><rect x="259.749" y="570" width="8.62" height="1" fill="#9333ea"><title>2026-01-20 · claude-sonnet-4-5: 76,304</title></rect><rect x="259.749" y="569" width="8.62" height="1" fill="#65a30d"><title>2026-01-20 · claude-opus-4-5: 407,046</title></rect><rect x="259.749" y="568" width="8.62" height="1" fill="#ea580c"><title>2026-01-20 · gemini-3-flash: 42,761</title></rect><rect x="259.749" y="567" width="8.62" height="1" fill="#d6d6d6"><title>2026-01-20 · other: 519,656</title></rect><rect x="269.369" y="609" width="8.62" height="1" fill="#dc2626"><title>2026-01-21 · gpt-5.2-codex: 10,762</title></rect><rect x="269.369" y="579" width="8.62" height="30" fill="#7c3aed"><title>2026-01-21 · claude-opus-4-5: 28,447,954</title></rect><rect x="269.369" y="578" width="8.62" height="1" fill="#ca8a04"><title>2026-01-21 · gpt-5.1-codex-mini: 92,968</title></rect><rect x="269.369" y="577" width="8.62" height="1" fill="#65a30d"><title>2026-01-21 · claude-opus-4-5: 53,395</title></rect><rect x="278.989" y="597" width="8.62" height="13" fill="#7c3aed"><title>2026-01-22 · claude-opus-4-5: 12,491,343</title></rect><rect x="278.989" y="596" width="8.62" height="1" fill="#db2777"><title>2026-01-22 · gemini-3-pro-high: 227,977</title></rect><rect x="278.989" y="595" width="8.62" height="1" fill="#65a30d"><title>2026-01-22 · claude-opus-4-5: 91,655</title></rect><rect x="288.61" y="608" width="8.62" height="2" fill="#dc2626"><title>2026-01-23 · gpt-5.2-codex: 1,686,344</title></rect><rect x="288.61" y="599" width="8.62" height="9" fill="#7c3aed"><title>2026-01-23 · claude-opus-4-5: 8,678,328</title></rect><rect x="288.61" y="598" width="8.62" height="1" fill="#db2777"><title>2026-01-23 · gemini-3-pro-high: 1,209,409</title></rect><rect x="288.61" y="597" width="8.62" height="1" fill="#65a30d"><title>2026-01-23 · claude-opus-4-5: 353,259</title></rect><rect x="288.61" y="595" width="8.62" height="2" fill="#ea580c"><title>2026-01-23 · gemini-3-flash: 2,077,898</title></rect><rect x="307.85" y="603" width="8.62" height="7" fill="#dc2626"><title>2026-01-25 · gpt-5.2-codex: 6,857,431</title></rect><rect x="307.85" y="599" width="8.62" height="4" fill="#7c3aed"><title>2026-01-25 · claude-opus-4-5: 3,883,373</title></rect><rect x="307.85" y="598" width="8.62" height="1" fill="#ea580c"><title>2026-01-25 · gemini-3-flash: 157,322</title></rect><rect x="317.471" y="598" width="8.62" height="12" fill="#dc2626"><title>2026-01-26 · gpt-5.2-codex: 11,520,282</title></rect><rect x="317.471" y="593" width="8.62" height="5" fill="#7c3aed"><title>2026-01-26 · claude-opus-4-5: 4,812,652</title></rect><rect x="317.471" y="592" width="8.62" height="1" fill="#db2777"><title>2026-01-26 · gemini-3-pro-high: 986,229</title></rect><rect x="327.091" y="580" width="8.62" height="30" fill="#dc2626"><title>2026-01-27 · gpt-5.2-codex: 28,545,985</title></rect><rect x="327.091" y="578" width="8.62" height="2" fill="#db2777"><title>2026-01-27 · gemini-3-pro-high: 1,718,789</title></rect><rect x="327.091" y="577" width="8.62" height="1" fill="#65a30d"><title>2026-01-27 · claude-opus-4-5: 25,841</title></rect><rect x="336.711" y="587" width="8.62" height="23" fill="#dc2626"><title>2026-01-28 · gpt-5.2-codex: 21,240,841</title></rect><rect x="336.711" y="586" width="8.62" height="1" fill="#db2777"><title>2026-01-28 · gemini-3-pro-high: 956,442</title></rect><rect x="355.952" y="581" width="8.62" height="29" fill="#dc2626"><title>2026-01-30 · gpt-5.2-codex: 27,724,216</title></rect><rect x="355.952" y="580" width="8.62" height="1" fill="#7c3aed"><title>2026-01-30 · claude-opus-4-5: 172,852</title></rect><rect x="355.952" y="579" width="8.62" height="1" fill="#db2777"><title>2026-01-30 · gemini-3-pro-high: 445,911</title></rect><rect x="384.813" y="588" width="8.62" height="22" fill="#dc2626"><title>2026-02-02 · gpt-5.2-codex: 20,903,647</title></rect><rect x="384.813" y="586" width="8.62" height="2" fill="#7c3aed"><title>2026-02-02 · claude-opus-4-5: 1,791,528</title></rect><rect x="384.813" y="585" width="8.62" height="1" fill="#db2777"><title>2026-02-02 · gemini-3-pro-high: 1,225,297</title></rect><rect x="384.813" y="584" width="8.62" height="1" fill="#65a30d"><title>2026-02-02 · claude-opus-4-5: 292,653</title></rect><rect x="394.433" y="566" width="8.62" height="44" fill="#dc2626"><title>2026-02-03 · gpt-5.2-codex: 41,318,888</title></rect><rect x="394.433" y="560" width="8.62" height="6" fill="#7c3aed"><title>2026-02-03 · claude-opus-4-5: 5,303,521</title></rect><rect x="394.433" y="559" width="8.62" height="1" fill="#db2777"><title>2026-02-03 · gemini-3-pro-high: 169,295</title></rect><rect x="394.433" y="558" width="8.62" height="1" fill="#65a30d"><title>2026-02-03 · claude-opus-4-5: 758,113</title></rect><rect x="404.053" y="560" width="8.62" height="50" fill="#dc2626"><title>2026-02-04 · gpt-5.2-codex: 46,878,049</title></rect><rect x="404.053" y="552" width="8.62" height="8" fill="#7c3aed"><title>2026-02-04 · claude-opus-4-5: 7,946,749</title></rect><rect x="404.053" y="551" width="8.62" height="1" fill="#db2777"><title>2026-02-04 · gemini-3-pro-high: 159,959</title></rect><rect x="404.053" y="550" width="8.62" height="1" fill="#65a30d"><title>2026-02-04 · claude-opus-4-5: 311,328</title></rect><rect x="413.674" y="593" width="8.62" height="17" fill="#dc2626"><title>2026-02-05 · gpt-5.2-codex: 15,540,183</title></rect><rect x="413.674" y="591" width="8.62" height="2" fill="#7c3aed"><title>2026-02-05 · claude-opus-4-5: 1,922,674</title></rect><rect x="413.674" y="590" width="8.62" height="1" fill="#db2777"><title>2026-02-05 · gemini-3-pro-high: 198,448</title></rect><rect x="413.674" y="589" width="8.62" height="1" fill="#9333ea"><title>2026-02-05 · claude-sonnet-4-5: 71</title></rect><rect x="413.674" y="588" width="8.62" height="1" fill="#65a30d"><title>2026-02-05 · claude-opus-4-5: 92,952</title></rect><rect x="413.674" y="587" width="8.62" height="1" fill="#d6d6d6"><title>2026-02-05 · other: 21,345</title></rect><rect x="452.155" y="460" width="8.62" height="150" fill="#16a34a"><title>2026-02-09 · gpt-5.3-codex: 141,236,994</title></rect><rect x="452.155" y="459" width="8.62" height="1" fill="#0891b2"><title>2026-02-09 · claude-opus-4-6: 33,140</title></rect><rect x="452.155" y="458" width="8.62" height="1" fill="#db2777"><title>2026-02-09 · gemini-3-pro-high: 440,867</title></rect><rect x="461.775" y="450" width="8.62" height="160" fill="#16a34a"><title>2026-02-10 · gpt-5.3-codex: 150,722,865</title></rect><rect x="461.775" y="449" width="8.62" height="1" fill="#0891b2"><title>2026-02-10 · claude-opus-4-6: 635</title></rect><rect x="461.775" y="448" width="8.62" height="1" fill="#db2777"><title>2026-02-10 · gemini-3-pro-high: 793,901</title></rect><rect x="471.396" y="470" width="8.62" height="140" fill="#16a34a"><title>2026-02-11 · gpt-5.3-codex: 131,664,526</title></rect><rect x="471.396" y="468" width="8.62" height="2" fill="#dc2626"><title>2026-02-11 · gpt-5.2-codex: 2,112,009</title></rect><rect x="471.396" y="465" width="8.62" height="3" fill="#0891b2"><title>2026-02-11 · claude-opus-4-6: 2,392,178</title></rect><rect x="471.396" y="457" width="8.62" height="8" fill="#ca8a04"><title>2026-02-11 · gpt-5.1-codex-mini: 7,391,748</title></rect><rect x="471.396" y="456" width="8.62" height="1" fill="#db2777"><title>2026-02-11 · gemini-3-pro-high: 257,012</title></rect><rect x="471.396" y="455" width="8.62" height="1" fill="#9333ea"><title>2026-02-11 · claude-sonnet-4-5: 4,592</title></rect><rect x="471.396" y="454" width="8.62" height="1" fill="#d6d6d6"><title>2026-02-11 · other: 109,752</title></rect><rect x="481.016" y="483" width="8.62" height="127" fill="#16a34a"><title>2026-02-12 · gpt-5.3-codex: 119,575,868</title></rect><rect x="481.016" y="482" width="8.62" height="1" fill="#0891b2"><title>2026-02-12 · claude-opus-4-6: 101,853</title></rect><rect x="481.016" y="475" width="8.62" height="7" fill="#ca8a04"><title>2026-02-12 · gpt-5.1-codex-mini: 6,858,435</title></rect><rect x="490.636" y="491" width="8.62" height="119" fill="#16a34a"><title>2026-02-13 · gpt-5.3-codex: 111,711,334</title></rect><rect x="490.636" y="490" width="8.62" height="1" fill="#0891b2"><title>2026-02-13 · claude-opus-4-6: 237,438</title></rect><rect x="500.257" y="546" width="8.62" height="64" fill="#16a34a"><title>2026-02-14 · gpt-5.3-codex: 60,326,612</title></rect><rect x="500.257" y="545" width="8.62" height="1" fill="#0891b2"><title>2026-02-14 · claude-opus-4-6: 81,303</title></rect><rect x="596.46" y="591" width="8.62" height="19" fill="#16a34a"><title>2026-02-24 · gpt-5.3-codex: 17,844,367</title></rect><rect x="596.46" y="590" width="8.62" height="1" fill="#0891b2"><title>2026-02-24 · claude-opus-4-6: 275,879</title></rect><rect x="596.46" y="586" width="8.62" height="4" fill="#ca8a04"><title>2026-02-24 · gpt-5.1-codex-mini: 3,700,169</title></rect><rect x="606.08" y="573" width="8.62" height="37" fill="#16a34a"><title>2026-02-25 · gpt-5.3-codex: 35,300,060</title></rect><rect x="606.08" y="572" width="8.62" height="1" fill="#0891b2"><title>2026-02-25 · claude-opus-4-6: 335,086</title></rect><rect x="615.701" y="587" width="8.62" height="23" fill="#16a34a"><title>2026-02-26 · gpt-5.3-codex: 21,978,839</title></rect><rect x="615.701" y="586" width="8.62" height="1" fill="#0891b2"><title>2026-02-26 · claude-opus-4-6: 432,053</title></rect><rect x="625.321" y="500" width="8.62" height="110" fill="#16a34a"><title>2026-02-27 · gpt-5.3-codex: 103,316,770</title></rect><rect x="625.321" y="497" width="8.62" height="3" fill="#0891b2"><title>2026-02-27 · claude-opus-4-6: 3,080,099</title></rect><rect x="625.321" y="496" width="8.62" height="1" fill="#0f766e"><title>2026-02-27 · claude-sonnet-4-6: 436,416</title></rect><rect x="625.321" y="495" width="8.62" height="1" fill="#d6d6d6"><title>2026-02-27 · other: 7,508</title></rect><rect x="634.941" y="467" width="8.62" height="143" fill="#16a34a"><title>2026-02-28 · gpt-5.3-codex: 134,619,960</title></rect><rect x="634.941" y="466" width="8.62" height="1" fill="#0891b2"><title>2026-02-28 · claude-opus-4-6: 367,510</title></rect><rect x="654.182" y="166" width="8.62" height="444" fill="#16a34a"><title>2026-03-02 · gpt-5.3-codex: 418,193,864</title></rect><rect x="663.802" y="240" width="8.62" height="370" fill="#16a34a"><title>2026-03-03 · gpt-5.3-codex: 348,254,841</title></rect><rect x="663.802" y="239" width="8.62" height="1" fill="#0f766e"><title>2026-03-03 · claude-sonnet-4-6: 276,882</title></rect><rect x="673.422" y="356" width="8.62" height="254" fill="#16a34a"><title>2026-03-04 · gpt-5.3-codex: 239,206,656</title></rect><rect x="673.422" y="355" width="8.62" height="1" fill="#0891b2"><title>2026-03-04 · claude-opus-4-6: 454,805</title></rect><rect x="673.422" y="354" width="8.62" height="1" fill="#0f766e"><title>2026-03-04 · claude-sonnet-4-6: 129,018</title></rect><rect x="683.043" y="257" width="8.62" height="353" fill="#16a34a"><title>2026-03-05 · gpt-5.3-codex: 332,875,594</title></rect><rect x="683.043" y="256" width="8.62" height="1" fill="#0891b2"><title>2026-03-05 · claude-opus-4-6: 110,278</title></rect><rect x="692.663" y="272" width="8.62" height="338" fill="#f97316"><title>2026-03-06 · gpt-5.4: 318,798,382</title></rect><rect x="692.663" y="94" width="8.62" height="178" fill="#16a34a"><title>2026-03-06 · gpt-5.3-codex: 167,860,181</title></rect><rect x="731.144" y="444" width="8.62" height="166" fill="#f97316"><title>2026-03-10 · gpt-5.4: 156,690,045</title></rect><rect x="740.765" y="457" width="8.62" height="153" fill="#f97316"><title>2026-03-11 · gpt-5.4: 143,641,065</title></rect><rect x="750.385" y="592" width="8.62" height="18" fill="#f97316"><title>2026-03-12 · gpt-5.4: 17,063,093</title></rect><rect x="760.005" y="575" width="8.62" height="35" fill="#f97316"><title>2026-03-13 · gpt-5.4: 32,613,344</title></rect><rect x="769.626" y="609" width="8.62" height="1" fill="#f97316"><title>2026-03-14 · gpt-5.4: 941,690</title></rect><rect x="788.866" y="492" width="8.62" height="118" fill="#f97316"><title>2026-03-16 · gpt-5.4: 111,509,244</title></rect><rect x="798.487" y="235" width="8.62" height="375" fill="#f97316"><title>2026-03-17 · gpt-5.4: 352,774,727</title></rect><rect x="798.487" y="225" width="8.62" height="10" fill="#16a34a"><title>2026-03-17 · gpt-5.3-codex: 9,096,047</title></rect><rect x="798.487" y="205" width="8.62" height="20" fill="#ca8a04"><title>2026-03-17 · gpt-5.1-codex-mini: 19,267,131</title></rect><rect x="808.107" y="497" width="8.62" height="113" fill="#f97316"><title>2026-03-18 · gpt-5.4: 106,065,385</title></rect><rect x="817.727" y="490" width="8.62" height="120" fill="#f97316"><title>2026-03-19 · gpt-5.4: 113,390,466</title></rect><rect x="827.348" y="471" width="8.62" height="139" fill="#f97316"><title>2026-03-20 · gpt-5.4: 130,689,108</title></rect><rect x="856.209" y="485" width="8.62" height="125" fill="#f97316"><title>2026-03-23 · gpt-5.4: 117,567,575</title></rect><rect x="865.829" y="442" width="8.62" height="168" fill="#f97316"><title>2026-03-24 · gpt-5.4: 158,156,674</title></rect><rect x="865.829" y="428" width="8.62" height="14" fill="#16a34a"><title>2026-03-24 · gpt-5.3-codex: 13,153,282</title></rect><rect x="875.449" y="448" width="8.62" height="162" fill="#f97316"><title>2026-03-25 · gpt-5.4: 152,780,888</title></rect><rect x="885.07" y="541" width="8.62" height="69" fill="#f97316"><title>2026-03-26 · gpt-5.4: 65,424,325</title></rect><rect x="894.69" y="546" width="8.62" height="64" fill="#f97316"><title>2026-03-27 · gpt-5.4: 60,080,467</title></rect><rect x="923.551" y="517" width="8.62" height="93" fill="#f97316"><title>2026-03-30 · gpt-5.4: 87,295,271</title></rect><rect x="933.171" y="604" width="8.62" height="6" fill="#f97316"><title>2026-03-31 · gpt-5.4: 6,017,516</title></rect><rect x="942.791" y="568" width="8.62" height="42" fill="#f97316"><title>2026-04-01 · gpt-5.4: 39,705,282</title></rect><rect x="952.412" y="499" width="8.62" height="111" fill="#f97316"><title>2026-04-02 · gpt-5.4: 104,722,055</title></rect><rect x="962.032" y="601" width="8.62" height="9" fill="#f97316"><title>2026-04-03 · gpt-5.4: 8,712,360</title></rect><rect x="1000.513" y="571" width="8.62" height="39" fill="#f97316"><title>2026-04-07 · gpt-5.4: 36,624,890</title></rect><rect x="1000.513" y="570" width="8.62" height="1" fill="#d6d6d6"><title>2026-04-07 · other: 2,474</title></rect><rect x="1010.134" y="601" width="8.62" height="9" fill="#f97316"><title>2026-04-08 · gpt-5.4: 8,262,225</title></rect><rect x="1019.754" y="605" width="8.62" height="5" fill="#f97316"><title>2026-04-09 · gpt-5.4: 4,977,345</title></rect><rect x="1019.754" y="604" width="8.62" height="1" fill="#0891b2"><title>2026-04-09 · claude-opus-4-6: 5,475</title></rect><rect x="1029.374" y="574" width="8.62" height="36" fill="#f97316"><title>2026-04-10 · gpt-5.4: 33,830,986</title></rect><rect x="1029.374" y="573" width="8.62" height="1" fill="#0891b2"><title>2026-04-10 · claude-opus-4-6: 37,404</title></rect><rect x="1058.235" y="559" width="8.62" height="51" fill="#f97316"><title>2026-04-13 · gpt-5.4: 48,119,673</title></rect><rect x="1067.856" y="565" width="8.62" height="45" fill="#f97316"><title>2026-04-14 · gpt-5.4: 42,371,229</title></rect><rect x="1077.476" y="510" width="8.62" height="100" fill="#f97316"><title>2026-04-15 · gpt-5.4: 94,056,763</title></rect><rect x="1077.476" y="509" width="8.62" height="1" fill="#0891b2"><title>2026-04-15 · claude-opus-4-6: 137,111</title></rect><rect x="1077.476" y="508" width="8.62" height="1" fill="#d6d6d6"><title>2026-04-15 · other: 143,355</title></rect><rect x="1087.096" y="519" width="8.62" height="91" fill="#f97316"><title>2026-04-16 · gpt-5.4: 85,274,532</title></rect><rect x="1087.096" y="489" width="8.62" height="30" fill="#0891b2"><title>2026-04-16 · claude-opus-4-6: 28,056,808</title></rect><rect x="1087.096" y="482" width="8.62" height="7" fill="#0f766e"><title>2026-04-16 · claude-sonnet-4-6: 7,027,150</title></rect><rect x="1087.096" y="481" width="8.62" height="1" fill="#d6d6d6"><title>2026-04-16 · other: 164,821</title></rect><rect x="1096.717" y="566" width="8.62" height="44" fill="#f97316"><title>2026-04-17 · gpt-5.4: 41,270,840</title></rect><rect x="1096.717" y="565" width="8.62" height="1" fill="#d6d6d6"><title>2026-04-17 · other: 1,256,183</title></rect><rect x="1125.578" y="562" width="8.62" height="48" fill="#f97316"><title>2026-04-20 · gpt-5.4: 44,908,066</title></rect><rect x="1125.578" y="559" width="8.62" height="3" fill="#0891b2"><title>2026-04-20 · claude-opus-4-6: 2,416,492</title></rect><rect x="1125.578" y="558" width="8.62" height="1" fill="#0f766e"><title>2026-04-20 · claude-sonnet-4-6: 3,462</title></rect><rect x="1125.578" y="557" width="8.62" height="1" fill="#d6d6d6"><title>2026-04-20 · other: 668,961</title></rect><rect x="1135.198" y="578" width="8.62" height="32" fill="#f97316"><title>2026-04-21 · gpt-5.4: 30,389,216</title></rect><rect x="1135.198" y="577" width="8.62" height="1" fill="#0891b2"><title>2026-04-21 · claude-opus-4-6: 610,114</title></rect><rect x="1135.198" y="576" width="8.62" height="1" fill="#d6d6d6"><title>2026-04-21 · other: 42,018</title></rect><rect x="1144.818" y="490" width="8.62" height="120" fill="#f97316"><title>2026-04-22 · gpt-5.4: 113,183,893</title></rect><rect x="1144.818" y="489" width="8.62" height="1" fill="#0891b2"><title>2026-04-22 · claude-opus-4-6: 998,147</title></rect><rect x="1144.818" y="488" width="8.62" height="1" fill="#d6d6d6"><title>2026-04-22 · other: 197,950</title></rect><rect x="1154.439" y="491" width="8.62" height="119" fill="#f97316"><title>2026-04-23 · gpt-5.4: 111,883,010</title></rect><rect x="1154.439" y="482" width="8.62" height="9" fill="#0891b2"><title>2026-04-23 · claude-opus-4-6: 8,464,584</title></rect><rect x="1164.059" y="471" width="8.62" height="139" fill="#2563eb"><title>2026-04-24 · gpt-5.5: 130,567,600</title></rect><rect x="1192.92" y="607" width="8.62" height="3" fill="#2563eb"><title>2026-04-27 · gpt-5.5: 3,223,599</title></rect><rect x="1202.54" y="600" width="8.62" height="10" fill="#2563eb"><title>2026-04-28 · gpt-5.5: 8,979,131</title></rect><rect x="1212.16" y="604" width="8.62" height="6" fill="#2563eb"><title>2026-04-29 · gpt-5.5: 5,689,751</title></rect><rect x="1289.123" y="352" width="8.62" height="258" fill="#2563eb"><title>2026-05-07 · gpt-5.5: 242,984,908</title></rect><rect x="1298.743" y="454" width="8.62" height="156" fill="#2563eb"><title>2026-05-08 · gpt-5.5: 146,813,066</title></rect><rect x="1308.364" y="121" width="8.62" height="489" fill="#2563eb"><title>2026-05-09 · gpt-5.5: 460,690,872</title></rect><rect x="1317.984" y="603" width="8.62" height="7" fill="#2563eb"><title>2026-05-10 · gpt-5.5: 6,635,788</title></rect><rect x="1327.604" y="320" width="8.62" height="290" fill="#2563eb"><title>2026-05-11 · gpt-5.5: 273,290,668</title></rect><rect x="1337.225" y="198" width="8.62" height="412" fill="#2563eb"><title>2026-05-12 · gpt-5.5: 388,418,100</title></rect><rect x="1346.845" y="71" width="8.62" height="539" fill="#2563eb"><title>2026-05-13 · gpt-5.5: 507,328,842</title></rect><rect x="1356.465" y="0" width="8.62" height="610" fill="#2563eb"><title>2026-05-14 · gpt-5.5: 574,511,362</title></rect><rect x="1366.086" y="121" width="8.62" height="489" fill="#2563eb"><title>2026-05-15 · gpt-5.5: 460,471,712</title></rect><rect x="1375.706" y="598" width="8.62" height="12" fill="#2563eb"><title>2026-05-16 · gpt-5.5: 11,269,786</title></rect><rect x="1385.326" y="606" width="8.62" height="4" fill="#2563eb"><title>2026-05-17 · gpt-5.5: 3,524,402</title></rect><rect x="1394.947" y="514" width="8.62" height="96" fill="#2563eb"><title>2026-05-18 · gpt-5.5: 90,370,094</title></rect><rect x="1404.567" y="585" width="8.62" height="25" fill="#2563eb"><title>2026-05-19 · gpt-5.5: 23,701,042</title></rect><rect x="1414.187" y="319" width="8.62" height="291" fill="#2563eb"><title>2026-05-20 · gpt-5.5: 274,170,050</title></rect><rect x="1423.807" y="155" width="8.62" height="455" fill="#2563eb"><title>2026-05-21 · gpt-5.5: 428,456,834</title></rect><rect x="1433.428" y="341" width="8.62" height="269" fill="#2563eb"><title>2026-05-22 · gpt-5.5: 253,768,666</title></rect><rect x="1452.668" y="570" width="8.62" height="40" fill="#2563eb"><title>2026-05-24 · gpt-5.5: 37,507,137</title></rect><rect x="1462.289" y="197" width="8.62" height="413" fill="#2563eb"><title>2026-05-25 · gpt-5.5: 388,599,823</title></rect><rect x="1471.909" y="336" width="8.62" height="274" fill="#2563eb"><title>2026-05-26 · gpt-5.5: 257,701,502</title></rect><rect x="1481.529" y="362" width="8.62" height="248" fill="#2563eb"><title>2026-05-27 · gpt-5.5: 233,723,854</title></rect><rect x="1491.15" y="295" width="8.62" height="315" fill="#2563eb"><title>2026-05-28 · gpt-5.5: 296,541,541</title></rect><rect x="1500.77" y="188" width="8.62" height="422" fill="#2563eb"><title>2026-05-29 · gpt-5.5: 397,282,375</title></rect><rect x="1520.011" y="582" width="8.62" height="28" fill="#2563eb"><title>2026-05-31 · gpt-5.5: 26,244,138</title></rect><rect x="1529.631" y="607" width="8.62" height="3" fill="#2563eb"><title>2026-06-01 · gpt-5.5: 3,177,548</title></rect><rect x="1539.251" y="583" width="8.62" height="27" fill="#2563eb"><title>2026-06-02 · gpt-5.5: 25,518,153</title></rect><rect x="1558.492" y="598" width="8.62" height="12" fill="#2563eb"><title>2026-06-04 · gpt-5.5: 11,602,631</title></rect><rect x="1568.112" y="609" width="8.62" height="1" fill="#2563eb"><title>2026-06-05 · gpt-5.5: 1,396,890</title></rect><rect x="1587.353" y="609" width="8.62" height="1" fill="#2563eb"><title>2026-06-07 · gpt-5.5: 577,278</title></rect><rect x="1596.973" y="609" width="8.62" height="1" fill="#2563eb"><title>2026-06-08 · gpt-5.5: 545,413</title></rect><rect x="1606.594" y="609" width="8.62" height="1" fill="#2563eb"><title>2026-06-09 · gpt-5.5: 392,011</title></rect><rect x="1779.759" y="609" width="8.62" height="1" fill="#2563eb"><title>2026-06-27 · gpt-5.5: 176,949</title></rect><rect x="1789.38" y="609" width="8.62" height="1" fill="#2563eb"><title>2026-06-28 · gpt-5.5: 279,586</title></rect>
    </g>
    <text x="0" y="644" text-anchor="start" class="tick">Dec 24</text><text x="302.54" y="644" text-anchor="middle" class="tick">Jan 24</text><text x="600.77" y="644" text-anchor="middle" class="tick">Feb 24</text><text x="899" y="644" text-anchor="middle" class="tick">Mar 27</text><text x="1197.23" y="644" text-anchor="middle" class="tick">Apr 27</text><text x="1495.46" y="644" text-anchor="middle" class="tick">May 28</text><text x="1793.69" y="644" text-anchor="middle" class="tick">Jun 28</text>
  </g>
  <g transform="translate(150, 828)">
    
      <rect x="0" y="0" width="11" height="11" rx="2" fill="#2563eb"/>
      <text x="18" y="11" class="legend">gpt-5.5</text>
      <rect x="295" y="0" width="11" height="11" rx="2" fill="#f97316"/>
      <text x="313" y="11" class="legend">gpt-5.4</text>
      <rect x="590" y="0" width="11" height="11" rx="2" fill="#16a34a"/>
      <text x="608" y="11" class="legend">gpt-5.3-codex</text>
      <rect x="885" y="0" width="11" height="11" rx="2" fill="#dc2626"/>
      <text x="903" y="11" class="legend">gpt-5.2-codex</text>
      <rect x="0" y="27" width="11" height="11" rx="2" fill="#7c3aed"/>
      <text x="18" y="38" class="legend">claude-opus-4-5</text>
      <rect x="295" y="27" width="11" height="11" rx="2" fill="#0891b2"/>
      <text x="313" y="38" class="legend">claude-opus-4-6</text>
      <rect x="590" y="27" width="11" height="11" rx="2" fill="#ca8a04"/>
      <text x="608" y="38" class="legend">gpt-5.1-codex-mini</text>
      <rect x="885" y="27" width="11" height="11" rx="2" fill="#db2777"/>
      <text x="903" y="38" class="legend">gemini-3-pro-high</text>
  </g>
</svg>
