<?xml version="1.0" encoding="UTF-8"?>
<svg width="1964" height="838" viewBox="36 118 1964 838" fill="none" xmlns="http://www.w3.org/2000/svg" role="img" aria-labelledby="title desc">
  <title id="title">AI token usage visualization</title>
  <desc id="desc">A profile ranking chart showing local AI token usage by day and model.</desc>
  <style>
    text { font-family: -apple-system, BlinkMacSystemFont, "Segoe UI", sans-serif; }
    .title { fill: #20242a; font-size: 46px; font-weight: 760; }
    .subtitle { fill: #5f6671; font-size: 30px; font-weight: 420; }
    .section { fill: #606773; font-size: 38px; font-weight: 650; }
    .axis { fill: #666; font-size: 24px; font-weight: 420; }
    .tick { fill: #666; font-size: 24px; font-weight: 420; }
    .legend { fill: #5f6671; font-size: 24px; font-weight: 500; }
    .metric { fill: #20242a; font-size: 24px; font-weight: 650; }
    .grid { stroke: #eceff3; stroke-width: 1; }
    .icon { fill: #606773; }
  </style>
  <rect x="36" y="118" width="1964" height="838" fill="#ffffff"/>

  <g transform="translate(150, 145)">
    
      <line x1="0" y1="457.5" x2="1798" y2="457.5" class="grid"/>
      <text x="-26" y="464.5" text-anchor="end" class="axis">143.6M</text>
      <line x1="0" y1="305.0" x2="1798" y2="305.0" class="grid"/>
      <text x="-26" y="312.0" text-anchor="end" class="axis">287.3M</text>
      <line x1="0" y1="152.5" x2="1798" y2="152.5" class="grid"/>
      <text x="-26" y="159.5" text-anchor="end" class="axis">430.9M</text>
      <line x1="0" y1="0.0" x2="1798" y2="0.0" class="grid"/>
      <text x="-26" y="7.0" text-anchor="end" class="axis">574.5M</text>
    <g>
      <rect x="0" y="604" width="7.995" height="6" fill="#dc2626"><title>2025-12-24 · gpt-5.2-codex: 5,790,449</title></rect><rect x="8.995" y="593" width="7.995" height="17" fill="#dc2626"><title>2025-12-25 · gpt-5.2-codex: 16,443,542</title></rect><rect x="17.99" y="563" width="7.995" height="47" fill="#dc2626"><title>2025-12-26 · gpt-5.2-codex: 43,924,994</title></rect><rect x="44.975" y="583" width="7.995" height="27" fill="#dc2626"><title>2025-12-29 · gpt-5.2-codex: 25,759,517</title></rect><rect x="53.97" y="576" width="7.995" height="34" fill="#dc2626"><title>2025-12-30 · gpt-5.2-codex: 32,097,039</title></rect><rect x="62.965" y="595" width="7.995" height="15" fill="#dc2626"><title>2025-12-31 · gpt-5.2-codex: 14,388,476</title></rect><rect x="71.96" y="549" width="7.995" height="61" fill="#dc2626"><title>2026-01-01 · gpt-5.2-codex: 57,050,767</title></rect><rect x="98.945" y="595" width="7.995" height="15" fill="#dc2626"><title>2026-01-04 · gpt-5.2-codex: 14,054,530</title></rect><rect x="98.945" y="593" width="7.995" height="2" fill="#7c3aed"><title>2026-01-04 · claude-opus-4-5: 1,669,225</title></rect><rect x="98.945" y="588" width="7.995" height="5" fill="#d6d6d6"><title>2026-01-04 · other: 4,249,098</title></rect><rect x="107.94" y="598" width="7.995" height="12" fill="#dc2626"><title>2026-01-05 · gpt-5.2-codex: 11,081,355</title></rect><rect x="107.94" y="590" width="7.995" height="8" fill="#7c3aed"><title>2026-01-05 · claude-opus-4-5: 7,863,606</title></rect><rect x="107.94" y="589" width="7.995" height="1" fill="#db2777"><title>2026-01-05 · gpt-5.1-codex-mini: 4,857</title></rect><rect x="116.935" y="600" width="7.995" height="10" fill="#dc2626"><title>2026-01-06 · gpt-5.2-codex: 9,555,672</title></rect><rect x="116.935" y="587" width="7.995" height="13" fill="#7c3aed"><title>2026-01-06 · claude-opus-4-5: 11,828,442</title></rect><rect x="125.93" y="604" width="7.995" height="6" fill="#dc2626"><title>2026-01-07 · gpt-5.2-codex: 5,181,180</title></rect><rect x="125.93" y="592" width="7.995" height="12" fill="#7c3aed"><title>2026-01-07 · claude-opus-4-5: 11,137,847</title></rect><rect x="134.925" y="605" width="7.995" height="5" fill="#7c3aed"><title>2026-01-08 · claude-opus-4-5: 4,331,620</title></rect><rect x="143.92" y="573" width="7.995" height="37" fill="#7c3aed"><title>2026-01-09 · claude-opus-4-5: 34,831,758</title></rect><rect x="161.91" y="609" width="7.995" height="1" fill="#7c3aed"><title>2026-01-11 · claude-opus-4-5: 146,164</title></rect><rect x="170.905" y="598" width="7.995" height="12" fill="#7c3aed"><title>2026-01-12 · claude-opus-4-5: 11,671,587</title></rect><rect x="179.9" y="591" width="7.995" height="19" fill="#dc2626"><title>2026-01-13 · gpt-5.2-codex: 17,791,041</title></rect><rect x="179.9" y="566" width="7.995" height="25" fill="#7c3aed"><title>2026-01-13 · claude-opus-4-5: 23,991,551</title></rect><rect x="188.895" y="605" width="7.995" height="5" fill="#dc2626"><title>2026-01-14 · gpt-5.2-codex: 4,350,993</title></rect><rect x="188.895" y="593" width="7.995" height="12" fill="#7c3aed"><title>2026-01-14 · claude-opus-4-5: 11,423,752</title></rect><rect x="197.89" y="606" width="7.995" height="4" fill="#7c3aed"><title>2026-01-15 · claude-opus-4-5: 3,590,929</title></rect><rect x="206.885" y="608" width="7.995" height="2" fill="#dc2626"><title>2026-01-16 · gpt-5.2-codex: 2,023,919</title></rect><rect x="206.885" y="601" width="7.995" height="7" fill="#7c3aed"><title>2026-01-16 · claude-opus-4-5: 6,714,435</title></rect><rect x="224.875" y="609" width="7.995" height="1" fill="#ea580c"><title>2026-01-18 · claude-sonnet-4-5: 376,202</title></rect><rect x="233.87" y="593" width="7.995" height="17" fill="#dc2626"><title>2026-01-19 · gpt-5.2-codex: 16,084,211</title></rect><rect x="233.87" y="498" width="7.995" height="95" fill="#7c3aed"><title>2026-01-19 · claude-opus-4-5: 89,099,463</title></rect><rect x="233.87" y="493" width="7.995" height="5" fill="#ea580c"><title>2026-01-19 · claude-sonnet-4-5: 4,458,695</title></rect><rect x="233.87" y="492" width="7.995" height="1" fill="#d6d6d6"><title>2026-01-19 · other: 39,760</title></rect><rect x="242.865" y="609" width="7.995" height="1" fill="#dc2626"><title>2026-01-20 · gpt-5.2-codex: 1,332,841</title></rect><rect x="242.865" y="573" width="7.995" height="36" fill="#7c3aed"><title>2026-01-20 · claude-opus-4-5: 33,775,164</title></rect><rect x="242.865" y="571" width="7.995" height="2" fill="#0f766e"><title>2026-01-20 · gemini-3-pro-high: 1,539,597</title></rect><rect x="242.865" y="570" width="7.995" height="1" fill="#ea580c"><title>2026-01-20 · claude-sonnet-4-5: 76,304</title></rect><rect x="242.865" y="569" width="7.995" height="1" fill="#d6d6d6"><title>2026-01-20 · other: 969,463</title></rect><rect x="251.86" y="609" width="7.995" height="1" fill="#dc2626"><title>2026-01-21 · gpt-5.2-codex: 10,762</title></rect><rect x="251.86" y="579" width="7.995" height="30" fill="#7c3aed"><title>2026-01-21 · claude-opus-4-5: 28,447,954</title></rect><rect x="251.86" y="578" width="7.995" height="1" fill="#db2777"><title>2026-01-21 · gpt-5.1-codex-mini: 92,968</title></rect><rect x="251.86" y="577" width="7.995" height="1" fill="#d6d6d6"><title>2026-01-21 · other: 53,395</title></rect><rect x="260.855" y="597" width="7.995" height="13" fill="#7c3aed"><title>2026-01-22 · claude-opus-4-5: 12,491,343</title></rect><rect x="260.855" y="596" width="7.995" height="1" fill="#0f766e"><title>2026-01-22 · gemini-3-pro-high: 227,977</title></rect><rect x="260.855" y="595" width="7.995" height="1" fill="#d6d6d6"><title>2026-01-22 · other: 91,655</title></rect><rect x="269.85" y="608" width="7.995" height="2" fill="#dc2626"><title>2026-01-23 · gpt-5.2-codex: 1,686,344</title></rect><rect x="269.85" y="599" width="7.995" height="9" fill="#7c3aed"><title>2026-01-23 · claude-opus-4-5: 8,678,328</title></rect><rect x="269.85" y="598" width="7.995" height="1" fill="#0f766e"><title>2026-01-23 · gemini-3-pro-high: 1,209,409</title></rect><rect x="269.85" y="595" width="7.995" height="3" fill="#d6d6d6"><title>2026-01-23 · other: 2,431,157</title></rect><rect x="287.84" y="603" width="7.995" height="7" fill="#dc2626"><title>2026-01-25 · gpt-5.2-codex: 6,857,431</title></rect><rect x="287.84" y="599" width="7.995" height="4" fill="#7c3aed"><title>2026-01-25 · claude-opus-4-5: 3,883,373</title></rect><rect x="287.84" y="598" width="7.995" height="1" fill="#d6d6d6"><title>2026-01-25 · other: 157,322</title></rect><rect x="296.835" y="598" width="7.995" height="12" fill="#dc2626"><title>2026-01-26 · gpt-5.2-codex: 11,520,282</title></rect><rect x="296.835" y="593" width="7.995" height="5" fill="#7c3aed"><title>2026-01-26 · claude-opus-4-5: 4,812,652</title></rect><rect x="296.835" y="592" width="7.995" height="1" fill="#0f766e"><title>2026-01-26 · gemini-3-pro-high: 986,229</title></rect><rect x="305.83" y="580" width="7.995" height="30" fill="#dc2626"><title>2026-01-27 · gpt-5.2-codex: 28,545,985</title></rect><rect x="305.83" y="578" width="7.995" height="2" fill="#0f766e"><title>2026-01-27 · gemini-3-pro-high: 1,718,789</title></rect><rect x="305.83" y="577" width="7.995" height="1" fill="#d6d6d6"><title>2026-01-27 · other: 25,841</title></rect><rect x="314.825" y="587" width="7.995" height="23" fill="#dc2626"><title>2026-01-28 · gpt-5.2-codex: 21,240,841</title></rect><rect x="314.825" y="586" width="7.995" height="1" fill="#0f766e"><title>2026-01-28 · gemini-3-pro-high: 956,442</title></rect><rect x="332.815" y="581" width="7.995" height="29" fill="#dc2626"><title>2026-01-30 · gpt-5.2-codex: 27,724,216</title></rect><rect x="332.815" y="580" width="7.995" height="1" fill="#7c3aed"><title>2026-01-30 · claude-opus-4-5: 172,852</title></rect><rect x="332.815" y="579" width="7.995" height="1" fill="#0f766e"><title>2026-01-30 · gemini-3-pro-high: 445,911</title></rect><rect x="359.8" y="588" width="7.995" height="22" fill="#dc2626"><title>2026-02-02 · gpt-5.2-codex: 20,903,647</title></rect><rect x="359.8" y="586" width="7.995" height="2" fill="#7c3aed"><title>2026-02-02 · claude-opus-4-5: 1,791,528</title></rect><rect x="359.8" y="585" width="7.995" height="1" fill="#0f766e"><title>2026-02-02 · gemini-3-pro-high: 1,225,297</title></rect><rect x="359.8" y="584" width="7.995" height="1" fill="#d6d6d6"><title>2026-02-02 · other: 292,653</title></rect><rect x="368.795" y="566" width="7.995" height="44" fill="#dc2626"><title>2026-02-03 · gpt-5.2-codex: 41,318,888</title></rect><rect x="368.795" y="560" width="7.995" height="6" fill="#7c3aed"><title>2026-02-03 · claude-opus-4-5: 5,303,521</title></rect><rect x="368.795" y="559" width="7.995" height="1" fill="#0f766e"><title>2026-02-03 · gemini-3-pro-high: 169,295</title></rect><rect x="368.795" y="558" width="7.995" height="1" fill="#d6d6d6"><title>2026-02-03 · other: 758,113</title></rect><rect x="377.79" y="560" width="7.995" height="50" fill="#dc2626"><title>2026-02-04 · gpt-5.2-codex: 46,878,049</title></rect><rect x="377.79" y="552" width="7.995" height="8" fill="#7c3aed"><title>2026-02-04 · claude-opus-4-5: 7,946,749</title></rect><rect x="377.79" y="551" width="7.995" height="1" fill="#0f766e"><title>2026-02-04 · gemini-3-pro-high: 159,959</title></rect><rect x="377.79" y="550" width="7.995" height="1" fill="#d6d6d6"><title>2026-02-04 · other: 311,328</title></rect><rect x="386.785" y="593" width="7.995" height="17" fill="#dc2626"><title>2026-02-05 · gpt-5.2-codex: 15,540,183</title></rect><rect x="386.785" y="591" width="7.995" height="2" fill="#7c3aed"><title>2026-02-05 · claude-opus-4-5: 1,922,674</title></rect><rect x="386.785" y="590" width="7.995" height="1" fill="#0f766e"><title>2026-02-05 · gemini-3-pro-high: 198,448</title></rect><rect x="386.785" y="589" width="7.995" height="1" fill="#ea580c"><title>2026-02-05 · claude-sonnet-4-5: 71</title></rect><rect x="386.785" y="588" width="7.995" height="1" fill="#d6d6d6"><title>2026-02-05 · other: 114,297</title></rect><rect x="422.765" y="460" width="7.995" height="150" fill="#16a34a"><title>2026-02-09 · gpt-5.3-codex: 141,236,994</title></rect><rect x="422.765" y="459" width="7.995" height="1" fill="#ca8a04"><title>2026-02-09 · claude-opus-4-6: 33,140</title></rect><rect x="422.765" y="458" width="7.995" height="1" fill="#0f766e"><title>2026-02-09 · gemini-3-pro-high: 440,867</title></rect><rect x="431.76" y="450" width="7.995" height="160" fill="#16a34a"><title>2026-02-10 · gpt-5.3-codex: 150,722,865</title></rect><rect x="431.76" y="449" width="7.995" height="1" fill="#ca8a04"><title>2026-02-10 · claude-opus-4-6: 635</title></rect><rect x="431.76" y="448" width="7.995" height="1" fill="#0f766e"><title>2026-02-10 · gemini-3-pro-high: 793,901</title></rect><rect x="440.755" y="470" width="7.995" height="140" fill="#16a34a"><title>2026-02-11 · gpt-5.3-codex: 131,664,526</title></rect><rect x="440.755" y="468" width="7.995" height="2" fill="#dc2626"><title>2026-02-11 · gpt-5.2-codex: 2,112,009</title></rect><rect x="440.755" y="465" width="7.995" height="3" fill="#ca8a04"><title>2026-02-11 · claude-opus-4-6: 2,392,178</title></rect><rect x="440.755" y="457" width="7.995" height="8" fill="#db2777"><title>2026-02-11 · gpt-5.1-codex-mini: 7,391,748</title></rect><rect x="440.755" y="456" width="7.995" height="1" fill="#0f766e"><title>2026-02-11 · gemini-3-pro-high: 257,012</title></rect><rect x="440.755" y="455" width="7.995" height="1" fill="#ea580c"><title>2026-02-11 · claude-sonnet-4-5: 4,592</title></rect><rect x="440.755" y="454" width="7.995" height="1" fill="#d6d6d6"><title>2026-02-11 · other: 109,752</title></rect><rect x="449.75" y="483" width="7.995" height="127" fill="#16a34a"><title>2026-02-12 · gpt-5.3-codex: 119,575,868</title></rect><rect x="449.75" y="482" width="7.995" height="1" fill="#ca8a04"><title>2026-02-12 · claude-opus-4-6: 101,853</title></rect><rect x="449.75" y="475" width="7.995" height="7" fill="#db2777"><title>2026-02-12 · gpt-5.1-codex-mini: 6,858,435</title></rect><rect x="458.745" y="491" width="7.995" height="119" fill="#16a34a"><title>2026-02-13 · gpt-5.3-codex: 111,711,334</title></rect><rect x="458.745" y="490" width="7.995" height="1" fill="#ca8a04"><title>2026-02-13 · claude-opus-4-6: 237,438</title></rect><rect x="467.74" y="546" width="7.995" height="64" fill="#16a34a"><title>2026-02-14 · gpt-5.3-codex: 60,326,612</title></rect><rect x="467.74" y="545" width="7.995" height="1" fill="#ca8a04"><title>2026-02-14 · claude-opus-4-6: 81,303</title></rect><rect x="557.69" y="591" width="7.995" height="19" fill="#16a34a"><title>2026-02-24 · gpt-5.3-codex: 17,844,367</title></rect><rect x="557.69" y="590" width="7.995" height="1" fill="#ca8a04"><title>2026-02-24 · claude-opus-4-6: 275,879</title></rect><rect x="557.69" y="586" width="7.995" height="4" fill="#db2777"><title>2026-02-24 · gpt-5.1-codex-mini: 3,700,169</title></rect><rect x="566.685" y="573" width="7.995" height="37" fill="#16a34a"><title>2026-02-25 · gpt-5.3-codex: 35,300,060</title></rect><rect x="566.685" y="572" width="7.995" height="1" fill="#ca8a04"><title>2026-02-25 · claude-opus-4-6: 335,086</title></rect><rect x="575.68" y="587" width="7.995" height="23" fill="#16a34a"><title>2026-02-26 · gpt-5.3-codex: 21,978,839</title></rect><rect x="575.68" y="586" width="7.995" height="1" fill="#ca8a04"><title>2026-02-26 · claude-opus-4-6: 432,053</title></rect><rect x="584.675" y="500" width="7.995" height="110" fill="#16a34a"><title>2026-02-27 · gpt-5.3-codex: 103,316,770</title></rect><rect x="584.675" y="497" width="7.995" height="3" fill="#ca8a04"><title>2026-02-27 · claude-opus-4-6: 3,080,099</title></rect><rect x="584.675" y="496" width="7.995" height="1" fill="#9333ea"><title>2026-02-27 · claude-sonnet-4-6: 436,416</title></rect><rect x="584.675" y="495" width="7.995" height="1" fill="#d6d6d6"><title>2026-02-27 · other: 7,508</title></rect><rect x="593.67" y="467" width="7.995" height="143" fill="#16a34a"><title>2026-02-28 · gpt-5.3-codex: 134,619,960</title></rect><rect x="593.67" y="466" width="7.995" height="1" fill="#ca8a04"><title>2026-02-28 · claude-opus-4-6: 367,510</title></rect><rect x="611.66" y="166" width="7.995" height="444" fill="#16a34a"><title>2026-03-02 · gpt-5.3-codex: 418,193,864</title></rect><rect x="620.655" y="240" width="7.995" height="370" fill="#16a34a"><title>2026-03-03 · gpt-5.3-codex: 348,254,841</title></rect><rect x="620.655" y="239" width="7.995" height="1" fill="#9333ea"><title>2026-03-03 · claude-sonnet-4-6: 276,882</title></rect><rect x="629.65" y="356" width="7.995" height="254" fill="#16a34a"><title>2026-03-04 · gpt-5.3-codex: 239,206,656</title></rect><rect x="629.65" y="355" width="7.995" height="1" fill="#ca8a04"><title>2026-03-04 · claude-opus-4-6: 454,805</title></rect><rect x="629.65" y="354" width="7.995" height="1" fill="#9333ea"><title>2026-03-04 · claude-sonnet-4-6: 129,018</title></rect><rect x="638.645" y="257" width="7.995" height="353" fill="#16a34a"><title>2026-03-05 · gpt-5.3-codex: 332,875,594</title></rect><rect x="638.645" y="256" width="7.995" height="1" fill="#ca8a04"><title>2026-03-05 · claude-opus-4-6: 110,278</title></rect><rect x="647.64" y="272" width="7.995" height="338" fill="#f97316"><title>2026-03-06 · gpt-5.4: 318,798,382</title></rect><rect x="647.64" y="94" width="7.995" height="178" fill="#16a34a"><title>2026-03-06 · gpt-5.3-codex: 167,860,181</title></rect><rect x="683.62" y="444" width="7.995" height="166" fill="#f97316"><title>2026-03-10 · gpt-5.4: 156,690,045</title></rect><rect x="692.615" y="457" width="7.995" height="153" fill="#f97316"><title>2026-03-11 · gpt-5.4: 143,641,065</title></rect><rect x="701.61" y="592" width="7.995" height="18" fill="#f97316"><title>2026-03-12 · gpt-5.4: 17,063,093</title></rect><rect x="710.605" y="575" width="7.995" height="35" fill="#f97316"><title>2026-03-13 · gpt-5.4: 32,613,344</title></rect><rect x="719.6" y="609" width="7.995" height="1" fill="#f97316"><title>2026-03-14 · gpt-5.4: 941,690</title></rect><rect x="737.59" y="492" width="7.995" height="118" fill="#f97316"><title>2026-03-16 · gpt-5.4: 111,509,244</title></rect><rect x="746.585" y="235" width="7.995" height="375" fill="#f97316"><title>2026-03-17 · gpt-5.4: 352,774,727</title></rect><rect x="746.585" y="225" width="7.995" height="10" fill="#16a34a"><title>2026-03-17 · gpt-5.3-codex: 9,096,047</title></rect><rect x="746.585" y="205" width="7.995" height="20" fill="#db2777"><title>2026-03-17 · gpt-5.1-codex-mini: 19,267,131</title></rect><rect x="755.58" y="497" width="7.995" height="113" fill="#f97316"><title>2026-03-18 · gpt-5.4: 106,065,385</title></rect><rect x="764.575" y="490" width="7.995" height="120" fill="#f97316"><title>2026-03-19 · gpt-5.4: 113,390,466</title></rect><rect x="773.57" y="471" width="7.995" height="139" fill="#f97316"><title>2026-03-20 · gpt-5.4: 130,689,108</title></rect><rect x="800.555" y="485" width="7.995" height="125" fill="#f97316"><title>2026-03-23 · gpt-5.4: 117,567,575</title></rect><rect x="809.55" y="442" width="7.995" height="168" fill="#f97316"><title>2026-03-24 · gpt-5.4: 158,156,674</title></rect><rect x="809.55" y="428" width="7.995" height="14" fill="#16a34a"><title>2026-03-24 · gpt-5.3-codex: 13,153,282</title></rect><rect x="818.545" y="448" width="7.995" height="162" fill="#f97316"><title>2026-03-25 · gpt-5.4: 152,780,888</title></rect><rect x="827.54" y="541" width="7.995" height="69" fill="#f97316"><title>2026-03-26 · gpt-5.4: 65,424,325</title></rect><rect x="836.535" y="546" width="7.995" height="64" fill="#f97316"><title>2026-03-27 · gpt-5.4: 60,080,467</title></rect><rect x="863.52" y="517" width="7.995" height="93" fill="#f97316"><title>2026-03-30 · gpt-5.4: 87,295,271</title></rect><rect x="872.515" y="604" width="7.995" height="6" fill="#f97316"><title>2026-03-31 · gpt-5.4: 6,017,516</title></rect><rect x="881.51" y="568" width="7.995" height="42" fill="#f97316"><title>2026-04-01 · gpt-5.4: 39,705,282</title></rect><rect x="890.505" y="499" width="7.995" height="111" fill="#f97316"><title>2026-04-02 · gpt-5.4: 104,722,055</title></rect><rect x="899.5" y="601" width="7.995" height="9" fill="#f97316"><title>2026-04-03 · gpt-5.4: 8,712,360</title></rect><rect x="935.48" y="571" width="7.995" height="39" fill="#f97316"><title>2026-04-07 · gpt-5.4: 36,624,890</title></rect><rect x="935.48" y="570" width="7.995" height="1" fill="#d6d6d6"><title>2026-04-07 · other: 2,474</title></rect><rect x="944.475" y="601" width="7.995" height="9" fill="#f97316"><title>2026-04-08 · gpt-5.4: 8,262,225</title></rect><rect x="953.47" y="605" width="7.995" height="5" fill="#f97316"><title>2026-04-09 · gpt-5.4: 4,977,345</title></rect><rect x="953.47" y="604" width="7.995" height="1" fill="#ca8a04"><title>2026-04-09 · claude-opus-4-6: 5,475</title></rect><rect x="962.465" y="574" width="7.995" height="36" fill="#f97316"><title>2026-04-10 · gpt-5.4: 33,830,986</title></rect><rect x="962.465" y="573" width="7.995" height="1" fill="#ca8a04"><title>2026-04-10 · claude-opus-4-6: 37,404</title></rect><rect x="989.45" y="559" width="7.995" height="51" fill="#f97316"><title>2026-04-13 · gpt-5.4: 48,119,673</title></rect><rect x="998.445" y="565" width="7.995" height="45" fill="#f97316"><title>2026-04-14 · gpt-5.4: 42,371,229</title></rect><rect x="1007.44" y="510" width="7.995" height="100" fill="#f97316"><title>2026-04-15 · gpt-5.4: 94,056,763</title></rect><rect x="1007.44" y="509" width="7.995" height="1" fill="#ca8a04"><title>2026-04-15 · claude-opus-4-6: 137,111</title></rect><rect x="1007.44" y="508" width="7.995" height="1" fill="#d6d6d6"><title>2026-04-15 · other: 143,355</title></rect><rect x="1016.435" y="519" width="7.995" height="91" fill="#f97316"><title>2026-04-16 · gpt-5.4: 85,274,532</title></rect><rect x="1016.435" y="489" width="7.995" height="30" fill="#ca8a04"><title>2026-04-16 · claude-opus-4-6: 28,056,808</title></rect><rect x="1016.435" y="482" width="7.995" height="7" fill="#9333ea"><title>2026-04-16 · claude-sonnet-4-6: 7,027,150</title></rect><rect x="1016.435" y="481" width="7.995" height="1" fill="#d6d6d6"><title>2026-04-16 · other: 164,821</title></rect><rect x="1025.43" y="566" width="7.995" height="44" fill="#f97316"><title>2026-04-17 · gpt-5.4: 41,270,840</title></rect><rect x="1025.43" y="565" width="7.995" height="1" fill="#d6d6d6"><title>2026-04-17 · other: 1,256,183</title></rect><rect x="1052.415" y="562" width="7.995" height="48" fill="#f97316"><title>2026-04-20 · gpt-5.4: 44,908,066</title></rect><rect x="1052.415" y="559" width="7.995" height="3" fill="#ca8a04"><title>2026-04-20 · claude-opus-4-6: 2,416,492</title></rect><rect x="1052.415" y="558" width="7.995" height="1" fill="#9333ea"><title>2026-04-20 · claude-sonnet-4-6: 3,462</title></rect><rect x="1052.415" y="557" width="7.995" height="1" fill="#d6d6d6"><title>2026-04-20 · other: 668,961</title></rect><rect x="1061.41" y="578" width="7.995" height="32" fill="#f97316"><title>2026-04-21 · gpt-5.4: 30,389,216</title></rect><rect x="1061.41" y="577" width="7.995" height="1" fill="#ca8a04"><title>2026-04-21 · claude-opus-4-6: 610,114</title></rect><rect x="1061.41" y="576" width="7.995" height="1" fill="#d6d6d6"><title>2026-04-21 · other: 42,018</title></rect><rect x="1070.405" y="490" width="7.995" height="120" fill="#f97316"><title>2026-04-22 · gpt-5.4: 113,183,893</title></rect><rect x="1070.405" y="489" width="7.995" height="1" fill="#ca8a04"><title>2026-04-22 · claude-opus-4-6: 998,147</title></rect><rect x="1070.405" y="488" width="7.995" height="1" fill="#d6d6d6"><title>2026-04-22 · other: 197,950</title></rect><rect x="1079.4" y="491" width="7.995" height="119" fill="#f97316"><title>2026-04-23 · gpt-5.4: 111,883,010</title></rect><rect x="1079.4" y="482" width="7.995" height="9" fill="#ca8a04"><title>2026-04-23 · claude-opus-4-6: 8,464,584</title></rect><rect x="1088.395" y="471" width="7.995" height="139" fill="#2563eb"><title>2026-04-24 · gpt-5.5: 130,567,600</title></rect><rect x="1115.38" y="607" width="7.995" height="3" fill="#2563eb"><title>2026-04-27 · gpt-5.5: 3,223,599</title></rect><rect x="1124.375" y="600" width="7.995" height="10" fill="#2563eb"><title>2026-04-28 · gpt-5.5: 8,979,131</title></rect><rect x="1133.37" y="604" width="7.995" height="6" fill="#2563eb"><title>2026-04-29 · gpt-5.5: 5,689,751</title></rect><rect x="1205.33" y="352" width="7.995" height="258" fill="#2563eb"><title>2026-05-07 · gpt-5.5: 242,984,908</title></rect><rect x="1214.325" y="454" width="7.995" height="156" fill="#2563eb"><title>2026-05-08 · gpt-5.5: 146,813,066</title></rect><rect x="1223.32" y="121" width="7.995" height="489" fill="#2563eb"><title>2026-05-09 · gpt-5.5: 460,690,872</title></rect><rect x="1232.315" y="603" width="7.995" height="7" fill="#2563eb"><title>2026-05-10 · gpt-5.5: 6,635,788</title></rect><rect x="1241.31" y="320" width="7.995" height="290" fill="#2563eb"><title>2026-05-11 · gpt-5.5: 273,290,668</title></rect><rect x="1250.305" y="198" width="7.995" height="412" fill="#2563eb"><title>2026-05-12 · gpt-5.5: 388,418,100</title></rect><rect x="1259.3" y="71" width="7.995" height="539" fill="#2563eb"><title>2026-05-13 · gpt-5.5: 507,328,842</title></rect><rect x="1268.295" y="0" width="7.995" height="610" fill="#2563eb"><title>2026-05-14 · gpt-5.5: 574,511,362</title></rect><rect x="1277.29" y="121" width="7.995" height="489" fill="#2563eb"><title>2026-05-15 · gpt-5.5: 460,471,712</title></rect><rect x="1286.285" y="598" width="7.995" height="12" fill="#2563eb"><title>2026-05-16 · gpt-5.5: 11,269,786</title></rect><rect x="1295.28" y="606" width="7.995" height="4" fill="#2563eb"><title>2026-05-17 · gpt-5.5: 3,524,402</title></rect><rect x="1304.275" y="514" width="7.995" height="96" fill="#2563eb"><title>2026-05-18 · gpt-5.5: 90,370,094</title></rect><rect x="1313.27" y="585" width="7.995" height="25" fill="#2563eb"><title>2026-05-19 · gpt-5.5: 23,701,042</title></rect><rect x="1322.265" y="319" width="7.995" height="291" fill="#2563eb"><title>2026-05-20 · gpt-5.5: 274,170,050</title></rect><rect x="1331.26" y="155" width="7.995" height="455" fill="#2563eb"><title>2026-05-21 · gpt-5.5: 428,456,834</title></rect><rect x="1340.255" y="341" width="7.995" height="269" fill="#2563eb"><title>2026-05-22 · gpt-5.5: 253,768,666</title></rect><rect x="1358.245" y="570" width="7.995" height="40" fill="#2563eb"><title>2026-05-24 · gpt-5.5: 37,507,137</title></rect><rect x="1367.24" y="197" width="7.995" height="413" fill="#2563eb"><title>2026-05-25 · gpt-5.5: 388,599,823</title></rect><rect x="1376.235" y="336" width="7.995" height="274" fill="#2563eb"><title>2026-05-26 · gpt-5.5: 257,701,502</title></rect><rect x="1385.23" y="362" width="7.995" height="248" fill="#2563eb"><title>2026-05-27 · gpt-5.5: 233,723,854</title></rect><rect x="1394.225" y="295" width="7.995" height="315" fill="#2563eb"><title>2026-05-28 · gpt-5.5: 296,541,541</title></rect><rect x="1403.22" y="188" width="7.995" height="422" fill="#2563eb"><title>2026-05-29 · gpt-5.5: 397,282,375</title></rect><rect x="1421.21" y="582" width="7.995" height="28" fill="#2563eb"><title>2026-05-31 · gpt-5.5: 26,244,138</title></rect><rect x="1430.205" y="607" width="7.995" height="3" fill="#2563eb"><title>2026-06-01 · gpt-5.5: 3,177,548</title></rect><rect x="1439.2" y="583" width="7.995" height="27" fill="#2563eb"><title>2026-06-02 · gpt-5.5: 25,518,153</title></rect><rect x="1457.19" y="598" width="7.995" height="12" fill="#2563eb"><title>2026-06-04 · gpt-5.5: 11,602,631</title></rect><rect x="1466.185" y="609" width="7.995" height="1" fill="#2563eb"><title>2026-06-05 · gpt-5.5: 1,396,890</title></rect><rect x="1484.175" y="609" width="7.995" height="1" fill="#2563eb"><title>2026-06-07 · gpt-5.5: 577,278</title></rect><rect x="1493.17" y="609" width="7.995" height="1" fill="#2563eb"><title>2026-06-08 · gpt-5.5: 545,413</title></rect><rect x="1502.165" y="609" width="7.995" height="1" fill="#2563eb"><title>2026-06-09 · gpt-5.5: 392,011</title></rect><rect x="1664.075" y="609" width="7.995" height="1" fill="#2563eb"><title>2026-06-27 · gpt-5.5: 176,949</title></rect><rect x="1673.07" y="609" width="7.995" height="1" fill="#2563eb"><title>2026-06-28 · gpt-5.5: 279,586</title></rect><rect x="1691.06" y="609" width="7.995" height="1" fill="#2563eb"><title>2026-06-30 · gpt-5.5: 661,861</title></rect><rect x="1700.055" y="609" width="7.995" height="1" fill="#2563eb"><title>2026-07-01 · gpt-5.5: 728,994</title></rect><rect x="1709.05" y="586" width="7.995" height="24" fill="#2563eb"><title>2026-07-02 · gpt-5.5: 22,250,643</title></rect><rect x="1718.045" y="605" width="7.995" height="5" fill="#2563eb"><title>2026-07-03 · gpt-5.5: 4,773,405</title></rect><rect x="1736.035" y="594" width="7.995" height="16" fill="#2563eb"><title>2026-07-05 · gpt-5.5: 14,677,448</title></rect><rect x="1745.03" y="602" width="7.995" height="8" fill="#2563eb"><title>2026-07-06 · gpt-5.5: 7,612,546</title></rect><rect x="1772.015" y="599" width="7.995" height="11" fill="#2563eb"><title>2026-07-09 · gpt-5.5: 10,042,289</title></rect><rect x="1781.01" y="391" width="7.995" height="219" fill="#0891b2"><title>2026-07-10 · gpt-5.6-sol: 206,498,702</title></rect><rect x="1781.01" y="384" width="7.995" height="7" fill="#65a30d"><title>2026-07-10 · gpt-5.6-terra: 6,506,780</title></rect><rect x="1781.01" y="382" width="7.995" height="2" fill="#d6d6d6"><title>2026-07-10 · other: 1,810,481</title></rect><rect x="1790.005" y="609" width="7.995" height="1" fill="#0891b2"><title>2026-07-11 · gpt-5.6-sol: 99,339</title></rect>
    </g>
    <text x="0" y="644" text-anchor="start" class="tick">Dec 24</text><text x="300.833" y="644" text-anchor="middle" class="tick">Jan 26</text><text x="597.668" y="644" text-anchor="middle" class="tick">Feb 28</text><text x="894.503" y="644" text-anchor="middle" class="tick">Apr 2</text><text x="1191.338" y="644" text-anchor="middle" class="tick">May 5</text><text x="1488.173" y="644" text-anchor="middle" class="tick">Jun 7</text><text x="1785.008" y="644" text-anchor="middle" class="tick">Jul 10</text>
  </g>
  <g transform="translate(150, 828)">
    
      <rect x="0" y="0" width="11" height="11" rx="2" fill="#2563eb"/>
      <text x="18" y="11" class="legend">gpt-5.5</text>
      <rect x="295" y="0" width="11" height="11" rx="2" fill="#f97316"/>
      <text x="313" y="11" class="legend">gpt-5.4</text>
      <rect x="590" y="0" width="11" height="11" rx="2" fill="#16a34a"/>
      <text x="608" y="11" class="legend">gpt-5.3-codex</text>
      <rect x="885" y="0" width="11" height="11" rx="2" fill="#dc2626"/>
      <text x="903" y="11" class="legend">gpt-5.2-codex</text>
      <rect x="0" y="27" width="11" height="11" rx="2" fill="#7c3aed"/>
      <text x="18" y="38" class="legend">claude-opus-4-5</text>
      <rect x="295" y="27" width="11" height="11" rx="2" fill="#0891b2"/>
      <text x="313" y="38" class="legend">gpt-5.6-sol</text>
      <rect x="590" y="27" width="11" height="11" rx="2" fill="#ca8a04"/>
      <text x="608" y="38" class="legend">claude-opus-4-6</text>
      <rect x="885" y="27" width="11" height="11" rx="2" fill="#db2777"/>
      <text x="903" y="38" class="legend">gpt-5.1-codex-mini</text>
  </g>
</svg>
