<?xml version="1.0" encoding="UTF-8"?>
<svg width="1964" height="838" viewBox="36 118 1964 838" fill="none" xmlns="http://www.w3.org/2000/svg" role="img" aria-labelledby="title desc">
  <title id="title">AI token usage visualization</title>
  <desc id="desc">A profile ranking chart showing local AI token usage by day and model.</desc>
  <style>
    text { font-family: -apple-system, BlinkMacSystemFont, "Segoe UI", sans-serif; }
    .title { fill: #20242a; font-size: 46px; font-weight: 760; }
    .subtitle { fill: #5f6671; font-size: 30px; font-weight: 420; }
    .section { fill: #606773; font-size: 38px; font-weight: 650; }
    .axis { fill: #666; font-size: 24px; font-weight: 420; }
    .tick { fill: #666; font-size: 24px; font-weight: 420; }
    .legend { fill: #5f6671; font-size: 24px; font-weight: 500; }
    .metric { fill: #20242a; font-size: 24px; font-weight: 650; }
    .grid { stroke: #eceff3; stroke-width: 1; }
    .icon { fill: #606773; }
  </style>
  <rect x="36" y="118" width="1964" height="838" fill="#ffffff"/>

  <g transform="translate(150, 145)">
    
      <line x1="0" y1="457.5" x2="1798" y2="457.5" class="grid"/>
      <text x="-26" y="464.5" text-anchor="end" class="axis">143.6M</text>
      <line x1="0" y1="305.0" x2="1798" y2="305.0" class="grid"/>
      <text x="-26" y="312.0" text-anchor="end" class="axis">287.3M</text>
      <line x1="0" y1="152.5" x2="1798" y2="152.5" class="grid"/>
      <text x="-26" y="159.5" text-anchor="end" class="axis">430.9M</text>
      <line x1="0" y1="0.0" x2="1798" y2="0.0" class="grid"/>
      <text x="-26" y="7.0" text-anchor="end" class="axis">574.5M</text>
    <g>
      <rect x="0" y="604" width="7.526" height="6" fill="#dc2626"><title>2025-12-24 · gpt-5.2-codex: 5,790,449</title></rect><rect x="8.526" y="593" width="7.526" height="17" fill="#dc2626"><title>2025-12-25 · gpt-5.2-codex: 16,443,542</title></rect><rect x="17.052" y="563" width="7.526" height="47" fill="#dc2626"><title>2025-12-26 · gpt-5.2-codex: 43,924,994</title></rect><rect x="42.63" y="583" width="7.526" height="27" fill="#dc2626"><title>2025-12-29 · gpt-5.2-codex: 25,759,517</title></rect><rect x="51.156" y="576" width="7.526" height="34" fill="#dc2626"><title>2025-12-30 · gpt-5.2-codex: 32,097,039</title></rect><rect x="59.682" y="595" width="7.526" height="15" fill="#dc2626"><title>2025-12-31 · gpt-5.2-codex: 14,388,476</title></rect><rect x="68.209" y="549" width="7.526" height="61" fill="#dc2626"><title>2026-01-01 · gpt-5.2-codex: 57,050,767</title></rect><rect x="93.787" y="595" width="7.526" height="15" fill="#dc2626"><title>2026-01-04 · gpt-5.2-codex: 14,054,530</title></rect><rect x="93.787" y="593" width="7.526" height="2" fill="#0891b2"><title>2026-01-04 · claude-opus-4-5: 1,669,225</title></rect><rect x="93.787" y="588" width="7.526" height="5" fill="#d6d6d6"><title>2026-01-04 · other: 4,249,098</title></rect><rect x="102.313" y="598" width="7.526" height="12" fill="#dc2626"><title>2026-01-05 · gpt-5.2-codex: 11,081,355</title></rect><rect x="102.313" y="590" width="7.526" height="8" fill="#0891b2"><title>2026-01-05 · claude-opus-4-5: 7,863,606</title></rect><rect x="102.313" y="589" width="7.526" height="1" fill="#db2777"><title>2026-01-05 · gpt-5.1-codex-mini: 4,857</title></rect><rect x="110.839" y="600" width="7.526" height="10" fill="#dc2626"><title>2026-01-06 · gpt-5.2-codex: 9,555,672</title></rect><rect x="110.839" y="587" width="7.526" height="13" fill="#0891b2"><title>2026-01-06 · claude-opus-4-5: 11,828,442</title></rect><rect x="119.365" y="604" width="7.526" height="6" fill="#dc2626"><title>2026-01-07 · gpt-5.2-codex: 5,181,180</title></rect><rect x="119.365" y="592" width="7.526" height="12" fill="#0891b2"><title>2026-01-07 · claude-opus-4-5: 11,137,847</title></rect><rect x="127.891" y="605" width="7.526" height="5" fill="#0891b2"><title>2026-01-08 · claude-opus-4-5: 4,331,620</title></rect><rect x="136.417" y="573" width="7.526" height="37" fill="#0891b2"><title>2026-01-09 · claude-opus-4-5: 34,831,758</title></rect><rect x="153.469" y="609" width="7.526" height="1" fill="#0891b2"><title>2026-01-11 · claude-opus-4-5: 146,164</title></rect><rect x="161.995" y="598" width="7.526" height="12" fill="#0891b2"><title>2026-01-12 · claude-opus-4-5: 11,671,587</title></rect><rect x="170.521" y="591" width="7.526" height="19" fill="#dc2626"><title>2026-01-13 · gpt-5.2-codex: 17,791,041</title></rect><rect x="170.521" y="566" width="7.526" height="25" fill="#0891b2"><title>2026-01-13 · claude-opus-4-5: 23,991,551</title></rect><rect x="179.047" y="605" width="7.526" height="5" fill="#dc2626"><title>2026-01-14 · gpt-5.2-codex: 4,350,993</title></rect><rect x="179.047" y="593" width="7.526" height="12" fill="#0891b2"><title>2026-01-14 · claude-opus-4-5: 11,423,752</title></rect><rect x="187.573" y="606" width="7.526" height="4" fill="#0891b2"><title>2026-01-15 · claude-opus-4-5: 3,590,929</title></rect><rect x="196.1" y="608" width="7.526" height="2" fill="#dc2626"><title>2026-01-16 · gpt-5.2-codex: 2,023,919</title></rect><rect x="196.1" y="601" width="7.526" height="7" fill="#0891b2"><title>2026-01-16 · claude-opus-4-5: 6,714,435</title></rect><rect x="213.152" y="609" width="7.526" height="1" fill="#ea580c"><title>2026-01-18 · claude-sonnet-4-5: 376,202</title></rect><rect x="221.678" y="593" width="7.526" height="17" fill="#dc2626"><title>2026-01-19 · gpt-5.2-codex: 16,084,211</title></rect><rect x="221.678" y="498" width="7.526" height="95" fill="#0891b2"><title>2026-01-19 · claude-opus-4-5: 89,099,463</title></rect><rect x="221.678" y="493" width="7.526" height="5" fill="#ea580c"><title>2026-01-19 · claude-sonnet-4-5: 4,458,695</title></rect><rect x="221.678" y="492" width="7.526" height="1" fill="#d6d6d6"><title>2026-01-19 · other: 39,760</title></rect><rect x="230.204" y="609" width="7.526" height="1" fill="#dc2626"><title>2026-01-20 · gpt-5.2-codex: 1,332,841</title></rect><rect x="230.204" y="573" width="7.526" height="36" fill="#0891b2"><title>2026-01-20 · claude-opus-4-5: 33,775,164</title></rect><rect x="230.204" y="571" width="7.526" height="2" fill="#0f766e"><title>2026-01-20 · gemini-3-pro-high: 1,539,597</title></rect><rect x="230.204" y="570" width="7.526" height="1" fill="#ea580c"><title>2026-01-20 · claude-sonnet-4-5: 76,304</title></rect><rect x="230.204" y="569" width="7.526" height="1" fill="#d6d6d6"><title>2026-01-20 · other: 969,463</title></rect><rect x="238.73" y="609" width="7.526" height="1" fill="#dc2626"><title>2026-01-21 · gpt-5.2-codex: 10,762</title></rect><rect x="238.73" y="579" width="7.526" height="30" fill="#0891b2"><title>2026-01-21 · claude-opus-4-5: 28,447,954</title></rect><rect x="238.73" y="578" width="7.526" height="1" fill="#db2777"><title>2026-01-21 · gpt-5.1-codex-mini: 92,968</title></rect><rect x="238.73" y="577" width="7.526" height="1" fill="#d6d6d6"><title>2026-01-21 · other: 53,395</title></rect><rect x="247.256" y="597" width="7.526" height="13" fill="#0891b2"><title>2026-01-22 · claude-opus-4-5: 12,491,343</title></rect><rect x="247.256" y="596" width="7.526" height="1" fill="#0f766e"><title>2026-01-22 · gemini-3-pro-high: 227,977</title></rect><rect x="247.256" y="595" width="7.526" height="1" fill="#d6d6d6"><title>2026-01-22 · other: 91,655</title></rect><rect x="255.782" y="608" width="7.526" height="2" fill="#dc2626"><title>2026-01-23 · gpt-5.2-codex: 1,686,344</title></rect><rect x="255.782" y="599" width="7.526" height="9" fill="#0891b2"><title>2026-01-23 · claude-opus-4-5: 8,678,328</title></rect><rect x="255.782" y="598" width="7.526" height="1" fill="#0f766e"><title>2026-01-23 · gemini-3-pro-high: 1,209,409</title></rect><rect x="255.782" y="595" width="7.526" height="3" fill="#d6d6d6"><title>2026-01-23 · other: 2,431,157</title></rect><rect x="272.834" y="603" width="7.526" height="7" fill="#dc2626"><title>2026-01-25 · gpt-5.2-codex: 6,857,431</title></rect><rect x="272.834" y="599" width="7.526" height="4" fill="#0891b2"><title>2026-01-25 · claude-opus-4-5: 3,883,373</title></rect><rect x="272.834" y="598" width="7.526" height="1" fill="#d6d6d6"><title>2026-01-25 · other: 157,322</title></rect><rect x="281.36" y="598" width="7.526" height="12" fill="#dc2626"><title>2026-01-26 · gpt-5.2-codex: 11,520,282</title></rect><rect x="281.36" y="593" width="7.526" height="5" fill="#0891b2"><title>2026-01-26 · claude-opus-4-5: 4,812,652</title></rect><rect x="281.36" y="592" width="7.526" height="1" fill="#0f766e"><title>2026-01-26 · gemini-3-pro-high: 986,229</title></rect><rect x="289.886" y="580" width="7.526" height="30" fill="#dc2626"><title>2026-01-27 · gpt-5.2-codex: 28,545,985</title></rect><rect x="289.886" y="578" width="7.526" height="2" fill="#0f766e"><title>2026-01-27 · gemini-3-pro-high: 1,718,789</title></rect><rect x="289.886" y="577" width="7.526" height="1" fill="#d6d6d6"><title>2026-01-27 · other: 25,841</title></rect><rect x="298.412" y="587" width="7.526" height="23" fill="#dc2626"><title>2026-01-28 · gpt-5.2-codex: 21,240,841</title></rect><rect x="298.412" y="586" width="7.526" height="1" fill="#0f766e"><title>2026-01-28 · gemini-3-pro-high: 956,442</title></rect><rect x="315.464" y="581" width="7.526" height="29" fill="#dc2626"><title>2026-01-30 · gpt-5.2-codex: 27,724,216</title></rect><rect x="315.464" y="580" width="7.526" height="1" fill="#0891b2"><title>2026-01-30 · claude-opus-4-5: 172,852</title></rect><rect x="315.464" y="579" width="7.526" height="1" fill="#0f766e"><title>2026-01-30 · gemini-3-pro-high: 445,911</title></rect><rect x="341.043" y="588" width="7.526" height="22" fill="#dc2626"><title>2026-02-02 · gpt-5.2-codex: 20,903,647</title></rect><rect x="341.043" y="586" width="7.526" height="2" fill="#0891b2"><title>2026-02-02 · claude-opus-4-5: 1,791,528</title></rect><rect x="341.043" y="585" width="7.526" height="1" fill="#0f766e"><title>2026-02-02 · gemini-3-pro-high: 1,225,297</title></rect><rect x="341.043" y="584" width="7.526" height="1" fill="#d6d6d6"><title>2026-02-02 · other: 292,653</title></rect><rect x="349.569" y="566" width="7.526" height="44" fill="#dc2626"><title>2026-02-03 · gpt-5.2-codex: 41,318,888</title></rect><rect x="349.569" y="560" width="7.526" height="6" fill="#0891b2"><title>2026-02-03 · claude-opus-4-5: 5,303,521</title></rect><rect x="349.569" y="559" width="7.526" height="1" fill="#0f766e"><title>2026-02-03 · gemini-3-pro-high: 169,295</title></rect><rect x="349.569" y="558" width="7.526" height="1" fill="#d6d6d6"><title>2026-02-03 · other: 758,113</title></rect><rect x="358.095" y="560" width="7.526" height="50" fill="#dc2626"><title>2026-02-04 · gpt-5.2-codex: 46,878,049</title></rect><rect x="358.095" y="552" width="7.526" height="8" fill="#0891b2"><title>2026-02-04 · claude-opus-4-5: 7,946,749</title></rect><rect x="358.095" y="551" width="7.526" height="1" fill="#0f766e"><title>2026-02-04 · gemini-3-pro-high: 159,959</title></rect><rect x="358.095" y="550" width="7.526" height="1" fill="#d6d6d6"><title>2026-02-04 · other: 311,328</title></rect><rect x="366.621" y="593" width="7.526" height="17" fill="#dc2626"><title>2026-02-05 · gpt-5.2-codex: 15,540,183</title></rect><rect x="366.621" y="591" width="7.526" height="2" fill="#0891b2"><title>2026-02-05 · claude-opus-4-5: 1,922,674</title></rect><rect x="366.621" y="590" width="7.526" height="1" fill="#0f766e"><title>2026-02-05 · gemini-3-pro-high: 198,448</title></rect><rect x="366.621" y="589" width="7.526" height="1" fill="#ea580c"><title>2026-02-05 · claude-sonnet-4-5: 71</title></rect><rect x="366.621" y="588" width="7.526" height="1" fill="#d6d6d6"><title>2026-02-05 · other: 114,297</title></rect><rect x="400.725" y="460" width="7.526" height="150" fill="#16a34a"><title>2026-02-09 · gpt-5.3-codex: 141,236,994</title></rect><rect x="400.725" y="459" width="7.526" height="1" fill="#ca8a04"><title>2026-02-09 · claude-opus-4-6: 33,140</title></rect><rect x="400.725" y="458" width="7.526" height="1" fill="#0f766e"><title>2026-02-09 · gemini-3-pro-high: 440,867</title></rect><rect x="409.251" y="450" width="7.526" height="160" fill="#16a34a"><title>2026-02-10 · gpt-5.3-codex: 150,722,865</title></rect><rect x="409.251" y="449" width="7.526" height="1" fill="#ca8a04"><title>2026-02-10 · claude-opus-4-6: 635</title></rect><rect x="409.251" y="448" width="7.526" height="1" fill="#0f766e"><title>2026-02-10 · gemini-3-pro-high: 793,901</title></rect><rect x="417.777" y="470" width="7.526" height="140" fill="#16a34a"><title>2026-02-11 · gpt-5.3-codex: 131,664,526</title></rect><rect x="417.777" y="468" width="7.526" height="2" fill="#dc2626"><title>2026-02-11 · gpt-5.2-codex: 2,112,009</title></rect><rect x="417.777" y="465" width="7.526" height="3" fill="#ca8a04"><title>2026-02-11 · claude-opus-4-6: 2,392,178</title></rect><rect x="417.777" y="457" width="7.526" height="8" fill="#db2777"><title>2026-02-11 · gpt-5.1-codex-mini: 7,391,748</title></rect><rect x="417.777" y="456" width="7.526" height="1" fill="#0f766e"><title>2026-02-11 · gemini-3-pro-high: 257,012</title></rect><rect x="417.777" y="455" width="7.526" height="1" fill="#ea580c"><title>2026-02-11 · claude-sonnet-4-5: 4,592</title></rect><rect x="417.777" y="454" width="7.526" height="1" fill="#d6d6d6"><title>2026-02-11 · other: 109,752</title></rect><rect x="426.303" y="483" width="7.526" height="127" fill="#16a34a"><title>2026-02-12 · gpt-5.3-codex: 119,575,868</title></rect><rect x="426.303" y="482" width="7.526" height="1" fill="#ca8a04"><title>2026-02-12 · claude-opus-4-6: 101,853</title></rect><rect x="426.303" y="475" width="7.526" height="7" fill="#db2777"><title>2026-02-12 · gpt-5.1-codex-mini: 6,858,435</title></rect><rect x="434.829" y="491" width="7.526" height="119" fill="#16a34a"><title>2026-02-13 · gpt-5.3-codex: 111,711,334</title></rect><rect x="434.829" y="490" width="7.526" height="1" fill="#ca8a04"><title>2026-02-13 · claude-opus-4-6: 237,438</title></rect><rect x="443.355" y="546" width="7.526" height="64" fill="#16a34a"><title>2026-02-14 · gpt-5.3-codex: 60,326,612</title></rect><rect x="443.355" y="545" width="7.526" height="1" fill="#ca8a04"><title>2026-02-14 · claude-opus-4-6: 81,303</title></rect><rect x="528.616" y="591" width="7.526" height="19" fill="#16a34a"><title>2026-02-24 · gpt-5.3-codex: 17,844,367</title></rect><rect x="528.616" y="590" width="7.526" height="1" fill="#ca8a04"><title>2026-02-24 · claude-opus-4-6: 275,879</title></rect><rect x="528.616" y="586" width="7.526" height="4" fill="#db2777"><title>2026-02-24 · gpt-5.1-codex-mini: 3,700,169</title></rect><rect x="537.142" y="573" width="7.526" height="37" fill="#16a34a"><title>2026-02-25 · gpt-5.3-codex: 35,300,060</title></rect><rect x="537.142" y="572" width="7.526" height="1" fill="#ca8a04"><title>2026-02-25 · claude-opus-4-6: 335,086</title></rect><rect x="545.668" y="587" width="7.526" height="23" fill="#16a34a"><title>2026-02-26 · gpt-5.3-codex: 21,978,839</title></rect><rect x="545.668" y="586" width="7.526" height="1" fill="#ca8a04"><title>2026-02-26 · claude-opus-4-6: 432,053</title></rect><rect x="554.194" y="500" width="7.526" height="110" fill="#16a34a"><title>2026-02-27 · gpt-5.3-codex: 103,316,770</title></rect><rect x="554.194" y="497" width="7.526" height="3" fill="#ca8a04"><title>2026-02-27 · claude-opus-4-6: 3,080,099</title></rect><rect x="554.194" y="496" width="7.526" height="1" fill="#9333ea"><title>2026-02-27 · claude-sonnet-4-6: 436,416</title></rect><rect x="554.194" y="495" width="7.526" height="1" fill="#d6d6d6"><title>2026-02-27 · other: 7,508</title></rect><rect x="562.72" y="467" width="7.526" height="143" fill="#16a34a"><title>2026-02-28 · gpt-5.3-codex: 134,619,960</title></rect><rect x="562.72" y="466" width="7.526" height="1" fill="#ca8a04"><title>2026-02-28 · claude-opus-4-6: 367,510</title></rect><rect x="579.773" y="166" width="7.526" height="444" fill="#16a34a"><title>2026-03-02 · gpt-5.3-codex: 418,193,864</title></rect><rect x="588.299" y="240" width="7.526" height="370" fill="#16a34a"><title>2026-03-03 · gpt-5.3-codex: 348,254,841</title></rect><rect x="588.299" y="239" width="7.526" height="1" fill="#9333ea"><title>2026-03-03 · claude-sonnet-4-6: 276,882</title></rect><rect x="596.825" y="356" width="7.526" height="254" fill="#16a34a"><title>2026-03-04 · gpt-5.3-codex: 239,206,656</title></rect><rect x="596.825" y="355" width="7.526" height="1" fill="#ca8a04"><title>2026-03-04 · claude-opus-4-6: 454,805</title></rect><rect x="596.825" y="354" width="7.526" height="1" fill="#9333ea"><title>2026-03-04 · claude-sonnet-4-6: 129,018</title></rect><rect x="605.351" y="257" width="7.526" height="353" fill="#16a34a"><title>2026-03-05 · gpt-5.3-codex: 332,875,594</title></rect><rect x="605.351" y="256" width="7.526" height="1" fill="#ca8a04"><title>2026-03-05 · claude-opus-4-6: 110,278</title></rect><rect x="613.877" y="272" width="7.526" height="338" fill="#f97316"><title>2026-03-06 · gpt-5.4: 318,798,382</title></rect><rect x="613.877" y="94" width="7.526" height="178" fill="#16a34a"><title>2026-03-06 · gpt-5.3-codex: 167,860,181</title></rect><rect x="647.981" y="444" width="7.526" height="166" fill="#f97316"><title>2026-03-10 · gpt-5.4: 156,690,045</title></rect><rect x="656.507" y="457" width="7.526" height="153" fill="#f97316"><title>2026-03-11 · gpt-5.4: 143,641,065</title></rect><rect x="665.033" y="592" width="7.526" height="18" fill="#f97316"><title>2026-03-12 · gpt-5.4: 17,063,093</title></rect><rect x="673.559" y="575" width="7.526" height="35" fill="#f97316"><title>2026-03-13 · gpt-5.4: 32,613,344</title></rect><rect x="682.085" y="609" width="7.526" height="1" fill="#f97316"><title>2026-03-14 · gpt-5.4: 941,690</title></rect><rect x="699.137" y="492" width="7.526" height="118" fill="#f97316"><title>2026-03-16 · gpt-5.4: 111,509,244</title></rect><rect x="707.664" y="235" width="7.526" height="375" fill="#f97316"><title>2026-03-17 · gpt-5.4: 352,774,727</title></rect><rect x="707.664" y="225" width="7.526" height="10" fill="#16a34a"><title>2026-03-17 · gpt-5.3-codex: 9,096,047</title></rect><rect x="707.664" y="205" width="7.526" height="20" fill="#db2777"><title>2026-03-17 · gpt-5.1-codex-mini: 19,267,131</title></rect><rect x="716.19" y="497" width="7.526" height="113" fill="#f97316"><title>2026-03-18 · gpt-5.4: 106,065,385</title></rect><rect x="724.716" y="490" width="7.526" height="120" fill="#f97316"><title>2026-03-19 · gpt-5.4: 113,390,466</title></rect><rect x="733.242" y="471" width="7.526" height="139" fill="#f97316"><title>2026-03-20 · gpt-5.4: 130,689,108</title></rect><rect x="758.82" y="485" width="7.526" height="125" fill="#f97316"><title>2026-03-23 · gpt-5.4: 117,567,575</title></rect><rect x="767.346" y="442" width="7.526" height="168" fill="#f97316"><title>2026-03-24 · gpt-5.4: 158,156,674</title></rect><rect x="767.346" y="428" width="7.526" height="14" fill="#16a34a"><title>2026-03-24 · gpt-5.3-codex: 13,153,282</title></rect><rect x="775.872" y="448" width="7.526" height="162" fill="#f97316"><title>2026-03-25 · gpt-5.4: 152,780,888</title></rect><rect x="784.398" y="541" width="7.526" height="69" fill="#f97316"><title>2026-03-26 · gpt-5.4: 65,424,325</title></rect><rect x="792.924" y="546" width="7.526" height="64" fill="#f97316"><title>2026-03-27 · gpt-5.4: 60,080,467</title></rect><rect x="818.502" y="517" width="7.526" height="93" fill="#f97316"><title>2026-03-30 · gpt-5.4: 87,295,271</title></rect><rect x="827.028" y="604" width="7.526" height="6" fill="#f97316"><title>2026-03-31 · gpt-5.4: 6,017,516</title></rect><rect x="835.555" y="568" width="7.526" height="42" fill="#f97316"><title>2026-04-01 · gpt-5.4: 39,705,282</title></rect><rect x="844.081" y="499" width="7.526" height="111" fill="#f97316"><title>2026-04-02 · gpt-5.4: 104,722,055</title></rect><rect x="852.607" y="601" width="7.526" height="9" fill="#f97316"><title>2026-04-03 · gpt-5.4: 8,712,360</title></rect><rect x="886.711" y="571" width="7.526" height="39" fill="#f97316"><title>2026-04-07 · gpt-5.4: 36,624,890</title></rect><rect x="886.711" y="570" width="7.526" height="1" fill="#d6d6d6"><title>2026-04-07 · other: 2,474</title></rect><rect x="895.237" y="601" width="7.526" height="9" fill="#f97316"><title>2026-04-08 · gpt-5.4: 8,262,225</title></rect><rect x="903.763" y="605" width="7.526" height="5" fill="#f97316"><title>2026-04-09 · gpt-5.4: 4,977,345</title></rect><rect x="903.763" y="604" width="7.526" height="1" fill="#ca8a04"><title>2026-04-09 · claude-opus-4-6: 5,475</title></rect><rect x="912.289" y="574" width="7.526" height="36" fill="#f97316"><title>2026-04-10 · gpt-5.4: 33,830,986</title></rect><rect x="912.289" y="573" width="7.526" height="1" fill="#ca8a04"><title>2026-04-10 · claude-opus-4-6: 37,404</title></rect><rect x="937.867" y="559" width="7.526" height="51" fill="#f97316"><title>2026-04-13 · gpt-5.4: 48,119,673</title></rect><rect x="946.393" y="565" width="7.526" height="45" fill="#f97316"><title>2026-04-14 · gpt-5.4: 42,371,229</title></rect><rect x="954.919" y="510" width="7.526" height="100" fill="#f97316"><title>2026-04-15 · gpt-5.4: 94,056,763</title></rect><rect x="954.919" y="509" width="7.526" height="1" fill="#ca8a04"><title>2026-04-15 · claude-opus-4-6: 137,111</title></rect><rect x="954.919" y="508" width="7.526" height="1" fill="#d6d6d6"><title>2026-04-15 · other: 143,355</title></rect><rect x="963.445" y="519" width="7.526" height="91" fill="#f97316"><title>2026-04-16 · gpt-5.4: 85,274,532</title></rect><rect x="963.445" y="489" width="7.526" height="30" fill="#ca8a04"><title>2026-04-16 · claude-opus-4-6: 28,056,808</title></rect><rect x="963.445" y="482" width="7.526" height="7" fill="#9333ea"><title>2026-04-16 · claude-sonnet-4-6: 7,027,150</title></rect><rect x="963.445" y="481" width="7.526" height="1" fill="#d6d6d6"><title>2026-04-16 · other: 164,821</title></rect><rect x="971.972" y="566" width="7.526" height="44" fill="#f97316"><title>2026-04-17 · gpt-5.4: 41,270,840</title></rect><rect x="971.972" y="565" width="7.526" height="1" fill="#d6d6d6"><title>2026-04-17 · other: 1,256,183</title></rect><rect x="997.55" y="562" width="7.526" height="48" fill="#f97316"><title>2026-04-20 · gpt-5.4: 44,908,066</title></rect><rect x="997.55" y="559" width="7.526" height="3" fill="#ca8a04"><title>2026-04-20 · claude-opus-4-6: 2,416,492</title></rect><rect x="997.55" y="558" width="7.526" height="1" fill="#9333ea"><title>2026-04-20 · claude-sonnet-4-6: 3,462</title></rect><rect x="997.55" y="557" width="7.526" height="1" fill="#d6d6d6"><title>2026-04-20 · other: 668,961</title></rect><rect x="1006.076" y="578" width="7.526" height="32" fill="#f97316"><title>2026-04-21 · gpt-5.4: 30,389,216</title></rect><rect x="1006.076" y="577" width="7.526" height="1" fill="#ca8a04"><title>2026-04-21 · claude-opus-4-6: 610,114</title></rect><rect x="1006.076" y="576" width="7.526" height="1" fill="#d6d6d6"><title>2026-04-21 · other: 42,018</title></rect><rect x="1014.602" y="490" width="7.526" height="120" fill="#f97316"><title>2026-04-22 · gpt-5.4: 113,183,893</title></rect><rect x="1014.602" y="489" width="7.526" height="1" fill="#ca8a04"><title>2026-04-22 · claude-opus-4-6: 998,147</title></rect><rect x="1014.602" y="488" width="7.526" height="1" fill="#d6d6d6"><title>2026-04-22 · other: 197,950</title></rect><rect x="1023.128" y="491" width="7.526" height="119" fill="#f97316"><title>2026-04-23 · gpt-5.4: 111,883,010</title></rect><rect x="1023.128" y="482" width="7.526" height="9" fill="#ca8a04"><title>2026-04-23 · claude-opus-4-6: 8,464,584</title></rect><rect x="1031.654" y="471" width="7.526" height="139" fill="#2563eb"><title>2026-04-24 · gpt-5.5: 130,567,600</title></rect><rect x="1057.232" y="607" width="7.526" height="3" fill="#2563eb"><title>2026-04-27 · gpt-5.5: 3,223,599</title></rect><rect x="1065.758" y="600" width="7.526" height="10" fill="#2563eb"><title>2026-04-28 · gpt-5.5: 8,979,131</title></rect><rect x="1074.284" y="604" width="7.526" height="6" fill="#2563eb"><title>2026-04-29 · gpt-5.5: 5,689,751</title></rect><rect x="1142.493" y="352" width="7.526" height="258" fill="#2563eb"><title>2026-05-07 · gpt-5.5: 242,984,908</title></rect><rect x="1151.019" y="454" width="7.526" height="156" fill="#2563eb"><title>2026-05-08 · gpt-5.5: 146,813,066</title></rect><rect x="1159.545" y="121" width="7.526" height="489" fill="#2563eb"><title>2026-05-09 · gpt-5.5: 460,690,872</title></rect><rect x="1168.071" y="603" width="7.526" height="7" fill="#2563eb"><title>2026-05-10 · gpt-5.5: 6,635,788</title></rect><rect x="1176.597" y="320" width="7.526" height="290" fill="#2563eb"><title>2026-05-11 · gpt-5.5: 273,290,668</title></rect><rect x="1185.123" y="198" width="7.526" height="412" fill="#2563eb"><title>2026-05-12 · gpt-5.5: 388,418,100</title></rect><rect x="1193.649" y="71" width="7.526" height="539" fill="#2563eb"><title>2026-05-13 · gpt-5.5: 507,328,842</title></rect><rect x="1202.175" y="0" width="7.526" height="610" fill="#2563eb"><title>2026-05-14 · gpt-5.5: 574,511,362</title></rect><rect x="1210.701" y="121" width="7.526" height="489" fill="#2563eb"><title>2026-05-15 · gpt-5.5: 460,471,712</title></rect><rect x="1219.227" y="598" width="7.526" height="12" fill="#2563eb"><title>2026-05-16 · gpt-5.5: 11,269,786</title></rect><rect x="1227.754" y="606" width="7.526" height="4" fill="#2563eb"><title>2026-05-17 · gpt-5.5: 3,524,402</title></rect><rect x="1236.28" y="514" width="7.526" height="96" fill="#2563eb"><title>2026-05-18 · gpt-5.5: 90,370,094</title></rect><rect x="1244.806" y="585" width="7.526" height="25" fill="#2563eb"><title>2026-05-19 · gpt-5.5: 23,701,042</title></rect><rect x="1253.332" y="319" width="7.526" height="291" fill="#2563eb"><title>2026-05-20 · gpt-5.5: 274,170,050</title></rect><rect x="1261.858" y="155" width="7.526" height="455" fill="#2563eb"><title>2026-05-21 · gpt-5.5: 428,456,834</title></rect><rect x="1270.384" y="341" width="7.526" height="269" fill="#2563eb"><title>2026-05-22 · gpt-5.5: 253,768,666</title></rect><rect x="1287.436" y="570" width="7.526" height="40" fill="#2563eb"><title>2026-05-24 · gpt-5.5: 37,507,137</title></rect><rect x="1295.962" y="197" width="7.526" height="413" fill="#2563eb"><title>2026-05-25 · gpt-5.5: 388,599,823</title></rect><rect x="1304.488" y="336" width="7.526" height="274" fill="#2563eb"><title>2026-05-26 · gpt-5.5: 257,701,502</title></rect><rect x="1313.014" y="362" width="7.526" height="248" fill="#2563eb"><title>2026-05-27 · gpt-5.5: 233,723,854</title></rect><rect x="1321.54" y="295" width="7.526" height="315" fill="#2563eb"><title>2026-05-28 · gpt-5.5: 296,541,541</title></rect><rect x="1330.066" y="188" width="7.526" height="422" fill="#2563eb"><title>2026-05-29 · gpt-5.5: 397,282,375</title></rect><rect x="1347.118" y="582" width="7.526" height="28" fill="#2563eb"><title>2026-05-31 · gpt-5.5: 26,244,138</title></rect><rect x="1355.645" y="607" width="7.526" height="3" fill="#2563eb"><title>2026-06-01 · gpt-5.5: 3,177,548</title></rect><rect x="1364.171" y="583" width="7.526" height="27" fill="#2563eb"><title>2026-06-02 · gpt-5.5: 25,518,153</title></rect><rect x="1381.223" y="598" width="7.526" height="12" fill="#2563eb"><title>2026-06-04 · gpt-5.5: 11,602,631</title></rect><rect x="1389.749" y="609" width="7.526" height="1" fill="#2563eb"><title>2026-06-05 · gpt-5.5: 1,396,890</title></rect><rect x="1406.801" y="609" width="7.526" height="1" fill="#2563eb"><title>2026-06-07 · gpt-5.5: 577,278</title></rect><rect x="1415.327" y="609" width="7.526" height="1" fill="#2563eb"><title>2026-06-08 · gpt-5.5: 545,413</title></rect><rect x="1423.853" y="609" width="7.526" height="1" fill="#2563eb"><title>2026-06-09 · gpt-5.5: 392,011</title></rect><rect x="1577.322" y="609" width="7.526" height="1" fill="#2563eb"><title>2026-06-27 · gpt-5.5: 176,949</title></rect><rect x="1585.848" y="609" width="7.526" height="1" fill="#2563eb"><title>2026-06-28 · gpt-5.5: 279,586</title></rect><rect x="1602.9" y="609" width="7.526" height="1" fill="#2563eb"><title>2026-06-30 · gpt-5.5: 661,861</title></rect><rect x="1611.427" y="609" width="7.526" height="1" fill="#2563eb"><title>2026-07-01 · gpt-5.5: 728,994</title></rect><rect x="1619.953" y="586" width="7.526" height="24" fill="#2563eb"><title>2026-07-02 · gpt-5.5: 22,250,643</title></rect><rect x="1628.479" y="605" width="7.526" height="5" fill="#2563eb"><title>2026-07-03 · gpt-5.5: 4,773,405</title></rect><rect x="1645.531" y="594" width="7.526" height="16" fill="#2563eb"><title>2026-07-05 · gpt-5.5: 14,677,448</title></rect><rect x="1654.057" y="602" width="7.526" height="8" fill="#2563eb"><title>2026-07-06 · gpt-5.5: 7,612,546</title></rect><rect x="1679.635" y="599" width="7.526" height="11" fill="#2563eb"><title>2026-07-09 · gpt-5.5: 10,042,289</title></rect><rect x="1688.161" y="391" width="7.526" height="219" fill="#7c3aed"><title>2026-07-10 · gpt-5.6-sol: 206,498,702</title></rect><rect x="1688.161" y="384" width="7.526" height="7" fill="#65a30d"><title>2026-07-10 · gpt-5.6-terra: 6,506,780</title></rect><rect x="1688.161" y="382" width="7.526" height="2" fill="#d6d6d6"><title>2026-07-10 · other: 1,810,481</title></rect><rect x="1696.687" y="609" width="7.526" height="1" fill="#7c3aed"><title>2026-07-11 · gpt-5.6-sol: 99,339</title></rect><rect x="1705.213" y="607" width="7.526" height="3" fill="#7c3aed"><title>2026-07-12 · gpt-5.6-sol: 3,028,081</title></rect><rect x="1713.739" y="609" width="7.526" height="1" fill="#7c3aed"><title>2026-07-13 · gpt-5.6-sol: 185,975</title></rect><rect x="1730.791" y="608" width="7.526" height="2" fill="#7c3aed"><title>2026-07-15 · gpt-5.6-sol: 1,714,509</title></rect><rect x="1739.318" y="451" width="7.526" height="159" fill="#7c3aed"><title>2026-07-16 · gpt-5.6-sol: 149,864,032</title></rect><rect x="1790.474" y="605" width="7.526" height="5" fill="#7c3aed"><title>2026-07-22 · gpt-5.6-sol: 4,614,563</title></rect>
    </g>
    <text x="0" y="644" text-anchor="start" class="tick">Dec 24</text><text x="302.175" y="644" text-anchor="middle" class="tick">Jan 28</text><text x="600.588" y="644" text-anchor="middle" class="tick">Mar 4</text><text x="899" y="644" text-anchor="middle" class="tick">Apr 8</text><text x="1197.412" y="644" text-anchor="middle" class="tick">May 13</text><text x="1495.825" y="644" text-anchor="middle" class="tick">Jun 17</text><text x="1794.237" y="644" text-anchor="middle" class="tick">Jul 22</text>
  </g>
  <g transform="translate(150, 828)">
    
      <rect x="0" y="0" width="11" height="11" rx="2" fill="#2563eb"/>
      <text x="18" y="11" class="legend">gpt-5.5</text>
      <rect x="295" y="0" width="11" height="11" rx="2" fill="#f97316"/>
      <text x="313" y="11" class="legend">gpt-5.4</text>
      <rect x="590" y="0" width="11" height="11" rx="2" fill="#16a34a"/>
      <text x="608" y="11" class="legend">gpt-5.3-codex</text>
      <rect x="885" y="0" width="11" height="11" rx="2" fill="#dc2626"/>
      <text x="903" y="11" class="legend">gpt-5.2-codex</text>
      <rect x="0" y="27" width="11" height="11" rx="2" fill="#7c3aed"/>
      <text x="18" y="38" class="legend">gpt-5.6-sol</text>
      <rect x="295" y="27" width="11" height="11" rx="2" fill="#0891b2"/>
      <text x="313" y="38" class="legend">claude-opus-4-5</text>
      <rect x="590" y="27" width="11" height="11" rx="2" fill="#ca8a04"/>
      <text x="608" y="38" class="legend">claude-opus-4-6</text>
      <rect x="885" y="27" width="11" height="11" rx="2" fill="#db2777"/>
      <text x="903" y="38" class="legend">gpt-5.1-codex-mini</text>
  </g>
</svg>
